<svg width="160" height="162" viewBox="0 0 160 162" fill="none" xmlns="http://www.w3.org/2000/svg">
<rect x="23" width="137" height="137" fill="#FAFAFA"/>
<rect y="25" width="137" height="137" fill="#F5F5F5"/>
<path d="M76.5929 122.889H59.5557V127.148H76.5929V122.889Z" fill="#F7FEFF"/>
<path d="M85.1114 118.631H76.5928V122.89H85.1114V118.631Z" fill="#F7FEFF"/>
<path d="M76.5929 118.631H59.5557V122.89H76.5929V118.631Z" fill="#231E2B"/>
<path d="M59.5557 118.631H51.0371V122.89H59.5557V118.631Z" fill="#F7FEFF"/>
<path d="M89.3706 114.371H85.1113V118.63H89.3706V114.371Z" fill="#F7FEFF"/>
<path d="M85.1114 114.371H76.5928V118.63H85.1114V114.371Z" fill="#231E2B"/>
<path d="M59.5557 114.371H51.0371V118.63H59.5557V114.371Z" fill="#231E2B"/>
<path d="M51.0367 114.371H46.7773V118.63H51.0367V114.371Z" fill="#F7FEFF"/>
<path d="M93.6314 110.111H89.3721V114.371H93.6314V110.111Z" fill="#F7FEFF"/>
<path d="M89.3706 110.111H85.1113V114.371H89.3706V110.111Z" fill="#231E2B"/>
<path d="M68.0743 110.111H59.5557V114.371H68.0743V110.111Z" fill="#F5F38E"/>
<path d="M55.2965 110.111V105.851H51.0372V84.5548H55.2965V80.2955H59.5558V76.0362H76.5931V71.7769H68.0745V67.5176H59.5558V71.7769H51.0372V76.0362H46.7779V84.5548H42.5186V101.592H46.7779V110.111H51.0372V114.37H59.5558V110.111H55.2965Z" fill="#E2B436"/>
<path d="M51.0367 110.111H46.7773V114.371H51.0367V110.111Z" fill="#231E2B"/>
<path d="M46.7779 110.111H42.5186V114.371H46.7779V110.111Z" fill="#F7FEFF"/>
<path d="M59.5562 105.852H55.2969V110.111H59.5562V105.852Z" fill="#F5F38E"/>
<path d="M46.7779 101.594H42.5186V110.112H46.7779V101.594Z" fill="#231E2B"/>
<path d="M97.8902 101.594H93.6309V110.112H97.8902V101.594Z" fill="#F7FEFF"/>
<path d="M93.6314 101.594H89.3721V110.112H93.6314V101.594Z" fill="#231E2B"/>
<path d="M68.0747 101.594H63.8154V105.853H68.0747V101.594Z" fill="#C2751D"/>
<path d="M55.2964 101.594H51.0371V105.853H55.2964V101.594Z" fill="#F5F38E"/>
<path d="M42.5181 101.594H38.2588V110.112H42.5181V101.594Z" fill="#F7FEFF"/>
<path d="M63.815 97.334H59.5557V101.593H63.815V97.334Z" fill="#C2751D"/>
<path d="M42.5181 84.5547H38.2588V101.592H42.5181V84.5547Z" fill="#231E2B"/>
<path d="M97.8902 84.5547H93.6309V101.592H97.8902V84.5547Z" fill="#231E2B"/>
<path d="M38.2593 84.5547H34V101.592H38.2593V84.5547Z" fill="#F7FEFF"/>
<path d="M76.5933 88.8145H72.334V93.0738H76.5933V88.8145Z" fill="#F5F38E"/>
<path d="M102.15 84.5547H97.8906V101.592H102.15V84.5547Z" fill="#F7FEFF"/>
<path d="M85.1109 84.5547H80.8516V88.814H85.1109V84.5547Z" fill="#C2751D"/>
<path d="M72.3335 84.5547H68.0742V88.814H72.3335V84.5547Z" fill="#F5F38E"/>
<path d="M68.0743 84.5547H63.815V88.814H59.5557V97.3326H63.815V101.592H72.3336V97.3326H76.5929V93.0733H72.3336V88.814H68.0743V84.5547Z" fill="#E2B436"/>
<path d="M97.8902 76.0371H93.6309V84.5557H97.8902V76.0371Z" fill="#F7FEFF"/>
<path d="M89.3709 80.2964H85.1116V76.0371H76.5929V80.2964H80.8522V84.5557H85.1116V101.593H80.8522V105.852H76.5929V110.112H68.0743V114.371H59.5557V118.63H76.5929V114.371H85.1116V110.112H89.3709V101.593H93.6302V84.5557H89.3709V80.2964Z" fill="#E2B436"/>
<path d="M80.8521 80.2969H76.5928V84.5562H80.8521V80.2969Z" fill="#C2751D"/>
<path d="M68.0744 80.2964V76.0371H59.5557V80.2964H55.2964V84.5557H51.0371V101.593H55.2964V105.852H59.5557V110.112H76.593V105.852H80.8523V101.593H85.1116V88.8151H80.8523V84.5557H76.593V80.2964H68.0744ZM76.593 88.8151V97.3337H72.3337V101.593H68.0744V105.852H63.8151V101.593H59.5557V88.8151H63.8151V84.5557H72.3337V88.8151H76.593Z" fill="#CF8934"/>
<path d="M46.7779 76.0371H42.5186V84.5557H46.7779V76.0371Z" fill="#231E2B"/>
<path d="M42.5181 76.0371H38.2588V84.5557H42.5181V76.0371Z" fill="#F7FEFF"/>
<path d="M93.6314 76.0371H89.3721V84.5557H93.6314V76.0371Z" fill="#231E2B"/>
<path d="M89.3706 76.0371H85.1113V80.2964H89.3706V76.0371Z" fill="#F5F38E"/>
<path d="M76.5929 76.0371H68.0742V80.2964H76.5929V76.0371Z" fill="#C2751D"/>
<path d="M93.6314 71.7773H89.3721V76.0367H93.6314V71.7773Z" fill="#F7FEFF"/>
<path d="M89.3706 71.7773H85.1113V76.0367H89.3706V71.7773Z" fill="#231E2B"/>
<path d="M85.1114 71.7773H76.5928V76.0367H85.1114V71.7773Z" fill="#F5F38E"/>
<path d="M51.0367 71.7773H46.7773V76.0367H51.0367V71.7773Z" fill="#231E2B"/>
<path d="M46.7779 71.7773H42.5186V76.0367H46.7779V71.7773Z" fill="#F7FEFF"/>
<path d="M89.3706 67.5176H85.1113V71.7769H89.3706V67.5176Z" fill="#F7FEFF"/>
<path d="M85.1114 67.5176H76.5928V71.7769H85.1114V67.5176Z" fill="#231E2B"/>
<path d="M76.5929 67.5176H68.0742V71.7769H76.5929V67.5176Z" fill="#F5F38E"/>
<path d="M59.5557 67.5176H51.0371V71.7769H59.5557V67.5176Z" fill="#231E2B"/>
<path d="M51.0367 67.5176H46.7773V71.7769H51.0367V67.5176Z" fill="#F7FEFF"/>
<path d="M85.1114 63.2598H76.5928V67.5191H85.1114V63.2598Z" fill="#F7FEFF"/>
<path d="M76.5929 63.2598H59.5557V67.5191H76.5929V63.2598Z" fill="#231E2B"/>
<path d="M59.5557 63.2598H51.0371V67.5191H59.5557V63.2598Z" fill="#F7FEFF"/>
<path d="M76.5929 59H59.5557V63.2593H76.5929V59Z" fill="#F7FEFF"/>
</svg>
