<svg width="160" height="162" viewBox="0 0 160 162" fill="none" xmlns="http://www.w3.org/2000/svg">
<rect x="23" width="137" height="137" fill="#FAFAFA"/>
<rect y="25" width="137" height="137" fill="#F5F5F5"/>
<path d="M51.6301 95.7539H54.1416V98.2686H51.6301V95.7539Z" fill="white"/>
<path d="M51.6301 93.2461H54.1416V95.7555H51.6301V93.2461Z" fill="white"/>
<path d="M51.6301 90.7324H54.1416V93.2418H51.6301V90.7324Z" fill="white"/>
<path d="M51.6301 88.2207H54.1416V90.7301H51.6301V88.2207Z" fill="white"/>
<path d="M51.6301 85.709H54.1416V88.2236H51.6301V85.709Z" fill="white"/>
<path d="M54.1415 98.2695H56.6582V100.779H54.1415V98.2695Z" fill="white"/>
<path d="M54.1415 95.7539H56.6582V98.2686H54.1415V95.7539Z" fill="white"/>
<path d="M54.1415 93.2461H56.6582V95.7555H54.1415V93.2461Z" fill="white"/>
<path d="M54.1415 90.7324H56.6582V93.2418H54.1415V90.7324Z" fill="white"/>
<path d="M54.1415 88.2207H56.6582V90.7301H54.1415V88.2207Z" fill="white"/>
<path d="M54.1415 85.709H56.6582V88.2236H54.1415V85.709Z" fill="white"/>
<path d="M54.1415 83.1992H56.6582V85.7086H54.1415V83.1992Z" fill="white"/>
<path d="M56.6584 100.779H59.1699V103.289H56.6584V100.779Z" fill="white"/>
<path d="M56.6584 98.2695H59.1699V100.779H56.6584V98.2695Z" fill="white"/>
<path d="M56.6584 95.7539H59.1699V98.2686H56.6584V95.7539Z" fill="white"/>
<path d="M56.6584 93.2461H59.1699V95.7555H56.6584V93.2461Z" fill="white"/>
<path d="M56.6584 90.7324H59.1699V93.2418H56.6584V90.7324Z" fill="white"/>
<path d="M56.6584 88.2207H59.1699V90.7301H56.6584V88.2207Z" fill="white"/>
<path d="M56.6584 85.709H59.1699V88.2236H56.6584V85.709Z" fill="white"/>
<path d="M56.6584 83.1992H59.1699V85.7086H56.6584V83.1992Z" fill="white"/>
<path d="M56.6584 80.6836H59.1699V83.193H56.6584V80.6836Z" fill="white"/>
<path d="M56.6584 78.1738H59.1699V80.6832H56.6584V78.1738Z" fill="white"/>
<path d="M56.6584 75.6582H59.1699V78.1728H56.6584V75.6582Z" fill="white"/>
<path d="M56.6584 73.1445H59.1699V75.6539H56.6584V73.1445Z" fill="white"/>
<path d="M56.6584 70.6348H59.1699V73.1442H56.6584V70.6348Z" fill="white"/>
<path d="M56.6584 68.1211H59.1699V70.6357H56.6584V68.1211Z" fill="white"/>
<path d="M59.175 100.779H61.6865V103.289H59.175V100.779Z" fill="white"/>
<path d="M59.175 98.2695H61.6865V100.779H59.175V98.2695Z" fill="white"/>
<path d="M59.175 95.7539H61.6865V98.2686H59.175V95.7539Z" fill="white"/>
<path d="M59.175 93.2461H61.6865V95.7555H59.175V93.2461Z" fill="white"/>
<path d="M59.175 90.7324H61.6865V93.2418H59.175V90.7324Z" fill="white"/>
<path d="M59.175 88.2207H61.6865V90.7301H59.175V88.2207Z" fill="white"/>
<path d="M59.175 85.709H61.6865V88.2236H59.175V85.709Z" fill="white"/>
<path d="M59.175 83.1992H61.6865V85.7086H59.175V83.1992Z" fill="white"/>
<path d="M59.175 80.6836H61.6865V83.193H59.175V80.6836Z" fill="white"/>
<path d="M59.175 78.1738H61.6865V80.6832H59.175V78.1738Z" fill="white"/>
<path d="M59.175 75.6582H61.6865V78.1728H59.175V75.6582Z" fill="white"/>
<path d="M59.175 73.1445H61.6865V75.6539H59.175V73.1445Z" fill="white"/>
<path d="M59.175 70.6348H61.6865V73.1442H59.175V70.6348Z" fill="white"/>
<path d="M59.175 68.1211H61.6865V70.6357H59.175V68.1211Z" fill="white"/>
<path d="M59.175 65.6113H61.6865V68.1207H59.175V65.6113Z" fill="white"/>
<path d="M61.6867 100.779H64.1982V103.289H61.6867V100.779Z" fill="white"/>
<path d="M61.6867 98.2695H64.1982V100.779H61.6867V98.2695Z" fill="white"/>
<path d="M61.6867 95.7539H64.1982V98.2686H61.6867V95.7539Z" fill="white"/>
<path d="M61.6867 93.2461H64.1982V95.7555H61.6867V93.2461Z" fill="white"/>
<path d="M61.6867 90.7324H64.1982V93.2418H61.6867V90.7324Z" fill="white"/>
<path d="M61.6867 88.2207H64.1982V90.7301H61.6867V88.2207Z" fill="white"/>
<path d="M61.6867 85.709H64.1982V88.2236H61.6867V85.709Z" fill="white"/>
<path d="M61.6867 83.1992H64.1982V85.7086H61.6867V83.1992Z" fill="white"/>
<path d="M61.6867 80.6836H64.1982V83.193H61.6867V80.6836Z" fill="white"/>
<path d="M61.6867 78.1738H64.1982V80.6832H61.6867V78.1738Z" fill="white"/>
<path d="M61.6867 75.6582H64.1982V78.1728H61.6867V75.6582Z" fill="white"/>
<path d="M61.6867 73.1445H64.1982V75.6539H61.6867V73.1445Z" fill="white"/>
<path d="M61.6867 70.6348H64.1982V73.1442H61.6867V70.6348Z" fill="white"/>
<path d="M61.6867 68.1211H64.1982V70.6357H61.6867V68.1211Z" fill="white"/>
<path d="M61.6867 65.6113H64.1982V68.1207H61.6867V65.6113Z" fill="white"/>
<path d="M64.1981 100.779H66.7148V103.289H64.1981V100.779Z" fill="white"/>
<path d="M64.1981 98.2695H66.7148V100.779H64.1981V98.2695Z" fill="white"/>
<path d="M64.1981 95.7539H66.7148V98.2686H64.1981V95.7539Z" fill="white"/>
<path d="M64.1981 93.2461H66.7148V95.7555H64.1981V93.2461Z" fill="white"/>
<path d="M64.1981 90.7324H66.7148V93.2418H64.1981V90.7324Z" fill="white"/>
<path d="M64.1981 88.2207H66.7148V90.7301H64.1981V88.2207Z" fill="white"/>
<path d="M64.1981 85.709H66.7148V88.2236H64.1981V85.709Z" fill="white"/>
<path d="M64.1981 83.1992H66.7148V85.7086H64.1981V83.1992Z" fill="white"/>
<path d="M64.1981 80.6836H66.7148V83.193H64.1981V80.6836Z" fill="white"/>
<path d="M64.1981 78.1738H66.7148V80.6832H64.1981V78.1738Z" fill="white"/>
<path d="M64.1981 75.6582H66.7148V78.1728H64.1981V75.6582Z" fill="white"/>
<path d="M64.1981 73.1445H66.7148V75.6539H64.1981V73.1445Z" fill="white"/>
<path d="M64.1981 70.6348H66.7148V73.1442H64.1981V70.6348Z" fill="white"/>
<path d="M64.1981 68.1211H66.7148V70.6357H64.1981V68.1211Z" fill="white"/>
<path d="M64.1981 65.6113H66.7148V68.1207H64.1981V65.6113Z" fill="white"/>
<path d="M66.715 100.779H69.2266V103.289H66.715V100.779Z" fill="white"/>
<path d="M66.715 98.2695H69.2266V100.779H66.715V98.2695Z" fill="white"/>
<path d="M66.715 95.7539H69.2266V98.2686H66.715V95.7539Z" fill="white"/>
<path d="M66.715 93.2461H69.2266V95.7555H66.715V93.2461Z" fill="white"/>
<path d="M66.715 90.7324H69.2266V93.2418H66.715V90.7324Z" fill="white"/>
<path d="M66.715 88.2207H69.2266V90.7301H66.715V88.2207Z" fill="white"/>
<path d="M66.715 85.709H69.2266V88.2236H66.715V85.709Z" fill="white"/>
<path d="M66.715 83.1992H69.2266V85.7086H66.715V83.1992Z" fill="white"/>
<path d="M66.715 80.6836H69.2266V83.193H66.715V80.6836Z" fill="white"/>
<path d="M66.715 78.1738H69.2266V80.6832H66.715V78.1738Z" fill="white"/>
<path d="M66.715 75.6582H69.2266V78.1728H66.715V75.6582Z" fill="white"/>
<path d="M66.715 73.1445H69.2266V75.6539H66.715V73.1445Z" fill="white"/>
<path d="M66.715 70.6348H69.2266V73.1442H66.715V70.6348Z" fill="white"/>
<path d="M66.715 68.1211H69.2266V70.6357H66.715V68.1211Z" fill="white"/>
<path d="M66.715 65.6113H69.2266V68.1207H66.715V65.6113Z" fill="white"/>
<path d="M69.2326 100.779H71.7441V103.289H69.2326V100.779Z" fill="white"/>
<path d="M69.2326 98.2695H71.7441V100.779H69.2326V98.2695Z" fill="white"/>
<path d="M69.2326 95.7539H71.7441V98.2686H69.2326V95.7539Z" fill="white"/>
<path d="M69.2326 93.2461H71.7441V95.7555H69.2326V93.2461Z" fill="white"/>
<path d="M69.2326 90.7324H71.7441V93.2418H69.2326V90.7324Z" fill="white"/>
<path d="M69.2326 88.2207H71.7441V90.7301H69.2326V88.2207Z" fill="white"/>
<path d="M69.2326 85.709H71.7441V88.2236H69.2326V85.709Z" fill="white"/>
<path d="M69.2326 83.1992H71.7441V85.7086H69.2326V83.1992Z" fill="white"/>
<path d="M69.2326 80.6836H71.7441V83.193H69.2326V80.6836Z" fill="white"/>
<path d="M69.2326 78.1738H71.7441V80.6832H69.2326V78.1738Z" fill="white"/>
<path d="M69.2326 75.6582H71.7441V78.1728H69.2326V75.6582Z" fill="white"/>
<path d="M69.2326 73.1445H71.7441V75.6539H69.2326V73.1445Z" fill="white"/>
<path d="M69.2326 70.6348H71.7441V73.1442H69.2326V70.6348Z" fill="white"/>
<path d="M69.2326 68.1211H71.7441V70.6357H69.2326V68.1211Z" fill="white"/>
<path d="M69.2326 65.6113H71.7441V68.1207H69.2326V65.6113Z" fill="white"/>
<path d="M71.7434 100.779H74.2549V103.289H71.7434V100.779Z" fill="white"/>
<path d="M71.7434 98.2695H74.2549V100.779H71.7434V98.2695Z" fill="white"/>
<path d="M71.7434 95.7539H74.2549V98.2686H71.7434V95.7539Z" fill="white"/>
<path d="M71.7434 93.2461H74.2549V95.7555H71.7434V93.2461Z" fill="white"/>
<path d="M71.7434 90.7324H74.2549V93.2418H71.7434V90.7324Z" fill="white"/>
<path d="M71.7434 88.2207H74.2549V90.7301H71.7434V88.2207Z" fill="white"/>
<path d="M71.7434 85.709H74.2549V88.2236H71.7434V85.709Z" fill="white"/>
<path d="M71.7434 83.1992H74.2549V85.7086H71.7434V83.1992Z" fill="white"/>
<path d="M71.7434 80.6836H74.2549V83.193H71.7434V80.6836Z" fill="white"/>
<path d="M71.7434 78.1738H74.2549V80.6832H71.7434V78.1738Z" fill="white"/>
<path d="M71.7434 75.6582H74.2549V78.1728H71.7434V75.6582Z" fill="white"/>
<path d="M71.7434 73.1445H74.2549V75.6539H71.7434V73.1445Z" fill="white"/>
<path d="M71.7434 70.6348H74.2549V73.1442H71.7434V70.6348Z" fill="white"/>
<path d="M71.7434 68.1211H74.2549V70.6357H71.7434V68.1211Z" fill="white"/>
<path d="M71.7434 65.6113H74.2549V68.1207H71.7434V65.6113Z" fill="white"/>
<path d="M74.2547 100.779H76.7715V103.289H74.2547V100.779Z" fill="white"/>
<path d="M74.2547 98.2695H76.7715V100.779H74.2547V98.2695Z" fill="white"/>
<path d="M74.2547 95.7539H76.7715V98.2686H74.2547V95.7539Z" fill="white"/>
<path d="M74.2547 93.2461H76.7715V95.7555H74.2547V93.2461Z" fill="white"/>
<path d="M74.2547 90.7324H76.7715V93.2418H74.2547V90.7324Z" fill="white"/>
<path d="M74.2547 88.2207H76.7715V90.7301H74.2547V88.2207Z" fill="white"/>
<path d="M74.2547 85.709H76.7715V88.2236H74.2547V85.709Z" fill="white"/>
<path d="M74.2547 83.1992H76.7715V85.7086H74.2547V83.1992Z" fill="white"/>
<path d="M74.2547 80.6836H76.7715V83.193H74.2547V80.6836Z" fill="white"/>
<path d="M74.2547 78.1738H76.7715V80.6832H74.2547V78.1738Z" fill="white"/>
<path d="M74.2547 75.6582H76.7715V78.1728H74.2547V75.6582Z" fill="white"/>
<path d="M74.2547 73.1445H76.7715V75.6539H74.2547V73.1445Z" fill="white"/>
<path d="M74.2547 70.6348H76.7715V73.1442H74.2547V70.6348Z" fill="white"/>
<path d="M74.2547 68.1211H76.7715V70.6357H74.2547V68.1211Z" fill="white"/>
<path d="M74.2547 65.6113H76.7715V68.1207H74.2547V65.6113Z" fill="white"/>
<path d="M76.7766 100.779H79.2881V103.289H76.7766V100.779Z" fill="white"/>
<path d="M76.7766 98.2695H79.2881V100.779H76.7766V98.2695Z" fill="white"/>
<path d="M76.7766 95.7539H79.2881V98.2686H76.7766V95.7539Z" fill="white"/>
<path d="M76.7766 93.2461H79.2881V95.7555H76.7766V93.2461Z" fill="white"/>
<path d="M76.7766 90.7324H79.2881V93.2418H76.7766V90.7324Z" fill="white"/>
<path d="M76.7766 88.2207H79.2881V90.7301H76.7766V88.2207Z" fill="white"/>
<path d="M76.7766 85.709H79.2881V88.2236H76.7766V85.709Z" fill="white"/>
<path d="M76.7766 83.1992H79.2881V85.7086H76.7766V83.1992Z" fill="white"/>
<path d="M76.7766 80.6836H79.2881V83.193H76.7766V80.6836Z" fill="white"/>
<path d="M76.7766 78.1738H79.2881V80.6832H76.7766V78.1738Z" fill="white"/>
<path d="M76.7766 75.6582H79.2881V78.1728H76.7766V75.6582Z" fill="white"/>
<path d="M76.7766 73.1445H79.2881V75.6539H76.7766V73.1445Z" fill="white"/>
<path d="M76.7766 70.6348H79.2881V73.1442H76.7766V70.6348Z" fill="white"/>
<path d="M76.7766 68.1211H79.2881V70.6357H76.7766V68.1211Z" fill="white"/>
<path d="M76.7766 65.6113H79.2881V68.1207H76.7766V65.6113Z" fill="white"/>
<path d="M79.2883 100.779H81.7998V103.289H79.2883V100.779Z" fill="white"/>
<path d="M79.2883 98.2695H81.7998V100.779H79.2883V98.2695Z" fill="white"/>
<path d="M79.2883 95.7539H81.7998V98.2686H79.2883V95.7539Z" fill="white"/>
<path d="M79.2883 93.2461H81.7998V95.7555H79.2883V93.2461Z" fill="white"/>
<path d="M79.2883 90.7324H81.7998V93.2418H79.2883V90.7324Z" fill="white"/>
<path d="M79.2883 88.2207H81.7998V90.7301H79.2883V88.2207Z" fill="white"/>
<path d="M79.2883 85.709H81.7998V88.2236H79.2883V85.709Z" fill="white"/>
<path d="M79.2883 83.1992H81.7998V85.7086H79.2883V83.1992Z" fill="white"/>
<path d="M79.2883 80.6836H81.7998V83.193H79.2883V80.6836Z" fill="white"/>
<path d="M79.2883 78.1738H81.7998V80.6832H79.2883V78.1738Z" fill="white"/>
<path d="M79.2883 75.6582H81.7998V78.1728H79.2883V75.6582Z" fill="white"/>
<path d="M79.2883 73.1445H81.7998V75.6539H79.2883V73.1445Z" fill="white"/>
<path d="M79.2883 70.6348H81.7998V73.1442H79.2883V70.6348Z" fill="white"/>
<path d="M79.2883 68.1211H81.7998V70.6357H79.2883V68.1211Z" fill="white"/>
<path d="M81.8049 98.2695H84.3164V100.779H81.8049V98.2695Z" fill="white"/>
<path d="M81.8049 95.7539H84.3164V98.2686H81.8049V95.7539Z" fill="white"/>
<path d="M81.8049 93.2461H84.3164V95.7555H81.8049V93.2461Z" fill="white"/>
<path d="M81.8049 90.7324H84.3164V93.2418H81.8049V90.7324Z" fill="white"/>
<path d="M81.8049 88.2207H84.3164V90.7301H81.8049V88.2207Z" fill="white"/>
<path d="M81.8049 85.709H84.3164V88.2236H81.8049V85.709Z" fill="white"/>
<path d="M81.8049 83.1992H84.3164V85.7086H81.8049V83.1992Z" fill="white"/>
<path d="M84.3114 95.7539H86.8281V98.2686H84.3114V95.7539Z" fill="white"/>
<path d="M84.3114 93.2461H86.8281V95.7555H84.3114V93.2461Z" fill="white"/>
<path d="M84.3114 90.7324H86.8281V93.2418H84.3114V90.7324Z" fill="white"/>
<path d="M84.3114 88.2207H86.8281V90.7301H84.3114V88.2207Z" fill="white"/>
<path d="M84.3114 85.709H86.8281V88.2236H84.3114V85.709Z" fill="white"/>
<path d="M36.5389 90.7305H39.0557V93.2399H36.5389V90.7305Z" fill="#F9AC46"/>
<path d="M36.5389 95.7559H39.0557V98.2705H36.5389V95.7559Z" fill="#F9AC46"/>
<path d="M36.5389 98.2695H39.0557V100.779H36.5389V98.2695Z" fill="#F9AC46"/>
<path d="M36.5389 100.779H39.0557V103.289H36.5389V100.779Z" fill="#F9AC46"/>
<path d="M36.5389 103.293H39.0557V105.802H36.5389V103.293Z" fill="#F9AC46"/>
<path d="M36.5389 105.803H39.0557V108.317H36.5389V105.803Z" fill="#C0C8CE"/>
<path d="M34.0275 90.7305H36.5391V93.2399H34.0275V90.7305Z" fill="#F9AC46"/>
<path d="M34.0275 95.7559H36.5391V98.2705H34.0275V95.7559Z" fill="#F9AC46"/>
<path d="M34.0275 98.2695H36.5391V100.779H34.0275V98.2695Z" fill="#F9AC46"/>
<path d="M34.0275 100.779H36.5391V103.289H34.0275V100.779Z" fill="#F9AC46"/>
<path d="M34.0275 103.293H36.5391V105.802H34.0275V103.293Z" fill="#F9AC46"/>
<path d="M34.0275 105.803H36.5391V108.317H34.0275V105.803Z" fill="#C0C8CE"/>
<path d="M31.5158 90.7305H34.0273V93.2399H31.5158V90.7305Z" fill="#F9AC46"/>
<path d="M31.5158 105.803H34.0273V108.317H31.5158V105.803Z" fill="#C0C8CE"/>
<path d="M31.5158 103.293H34.0273V105.802H31.5158V103.293Z" fill="#F9AC46"/>
<path d="M31.5158 100.779H34.0273V103.289H31.5158V100.779Z" fill="#F9AC46"/>
<path d="M31.5158 98.2695H34.0273V100.779H31.5158V98.2695Z" fill="#F9AC46"/>
<path d="M31.5158 95.7559H34.0273V98.2705H31.5158V95.7559Z" fill="#F9AC46"/>
<path d="M31.5158 93.2461H34.0273V95.7555H31.5158V93.2461Z" fill="#F9AC46"/>
<path d="M34.0275 93.2461H36.5391V95.7555H34.0275V93.2461Z" fill="#F9AC46"/>
<path d="M39.0617 90.7305H41.5732V93.2399H39.0617V90.7305Z" fill="#F9AC46"/>
<path d="M39.0617 105.803H41.5732V108.317H39.0617V105.803Z" fill="#C0C8CE"/>
<path d="M39.0617 103.293H41.5732V105.802H39.0617V103.293Z" fill="#F9AC46"/>
<path d="M39.0617 100.779H41.5732V103.289H39.0617V100.779Z" fill="#F9AC46"/>
<path d="M39.0617 98.2695H41.5732V100.779H39.0617V98.2695Z" fill="#F9AC46"/>
<path d="M39.0617 95.7559H41.5732V98.2705H39.0617V95.7559Z" fill="#F9AC46"/>
<path d="M39.0617 93.2461H41.5732V95.7555H39.0617V93.2461Z" fill="#F9AC46"/>
<path d="M36.5389 93.2461H39.0557V95.7555H36.5389V93.2461Z" fill="#F9AC46"/>
<path d="M39.0617 88.2227H41.5732V90.7321H39.0617V88.2227Z" fill="#F9AC46"/>
<path d="M41.5734 88.2227H44.085V90.7321H41.5734V88.2227Z" fill="#C0C8CE"/>
<path d="M31.5158 88.2227H34.0273V90.7321H31.5158V88.2227Z" fill="#F9AC46"/>
<path d="M34.0275 88.2227H36.5391V90.7321H34.0275V88.2227Z" fill="#F9AC46"/>
<path d="M36.5389 88.2227H39.0557V90.7321H36.5389V88.2227Z" fill="#F9AC46"/>
<path d="M29.0002 93.2461H31.5117V95.7555H29.0002V93.2461Z" fill="#C0C8CE"/>
<path d="M29.0002 108.318H31.5117V110.828H29.0002V108.318Z" fill="#C0C8CE"/>
<path d="M29.0002 98.2695H31.5117V100.779H29.0002V98.2695Z" fill="#C0C8CE"/>
<path d="M29.0002 88.2227H31.5117V90.7321H29.0002V88.2227Z" fill="#C0C8CE"/>
<path d="M29.0002 100.779H31.5117V103.289H29.0002V100.779Z" fill="#C0C8CE"/>
<path d="M29.0002 103.293H31.5117V105.802H29.0002V103.293Z" fill="#C0C8CE"/>
<path d="M29.0002 90.7305H31.5117V93.2399H29.0002V90.7305Z" fill="#C0C8CE"/>
<path d="M29.0002 105.803H31.5117V108.317H29.0002V105.803Z" fill="#C0C8CE"/>
<path d="M29.0002 95.7559H31.5117V98.2705H29.0002V95.7559Z" fill="#C0C8CE"/>
<path d="M39.0617 108.318H41.5732V110.828H39.0617V108.318Z" fill="#C0C8CE"/>
<path d="M31.5158 108.318H34.0273V110.828H31.5158V108.318Z" fill="#C0C8CE"/>
<path d="M34.0275 108.318H36.5391V110.828H34.0275V108.318Z" fill="#C0C8CE"/>
<path d="M36.5389 108.318H39.0557V110.828H36.5389V108.318Z" fill="#C0C8CE"/>
<path d="M44.0891 105.803H46.6006V108.317H44.0891V105.803Z" fill="#C0C8CE"/>
<path d="M41.5734 93.2461H44.085V95.7555H41.5734V93.2461Z" fill="#C0C8CE"/>
<path d="M41.5734 108.318H44.085V110.828H41.5734V108.318Z" fill="#C0C8CE"/>
<path d="M41.5734 105.803H44.085V108.317H41.5734V105.803Z" fill="#C0C8CE"/>
<path d="M41.5734 98.2695H44.085V100.779H41.5734V98.2695Z" fill="#C0C8CE"/>
<path d="M41.5734 100.779H44.085V103.289H41.5734V100.779Z" fill="#C0C8CE"/>
<path d="M41.5734 95.7559H44.085V98.2705H41.5734V95.7559Z" fill="#C0C8CE"/>
<path d="M41.5734 90.7305H44.085V93.2399H41.5734V90.7305Z" fill="#C0C8CE"/>
<path d="M41.5734 103.293H44.085V105.802H41.5734V103.293Z" fill="#C0C8CE"/>
<path d="M44.0891 93.2461H46.6006V95.7555H44.0891V93.2461Z" fill="#C0C8CE"/>
<path d="M44.0891 95.7559H46.6006V98.2705H44.0891V95.7559Z" fill="#C0C8CE"/>
<path d="M89.3439 93.2461H91.8555V95.7555H89.3439V93.2461Z" fill="#C0C8CE"/>
<path d="M91.8615 93.2461H94.373V95.7555H91.8615V93.2461Z" fill="#C0C8CE"/>
<path d="M96.8889 93.2461H99.4004V95.7555H96.8889V93.2461Z" fill="#F9AC46"/>
<path d="M96.8889 95.7559H99.4004V98.2705H96.8889V95.7559Z" fill="#F9AC46"/>
<path d="M96.8889 98.2695H99.4004V100.779H96.8889V98.2695Z" fill="#F9AC46"/>
<path d="M96.8889 100.779H99.4004V103.289H96.8889V100.779Z" fill="#F9AC46"/>
<path d="M96.8889 103.293H99.4004V105.802H96.8889V103.293Z" fill="#F9AC46"/>
<path d="M104.429 93.2461H106.945V95.7555H104.429V93.2461Z" fill="#F9AC46"/>
<path d="M104.429 95.7559H106.945V98.2705H104.429V95.7559Z" fill="#F9AC46"/>
<path d="M104.429 98.2695H106.945V100.779H104.429V98.2695Z" fill="#F9AC46"/>
<path d="M104.429 100.779H106.945V103.289H104.429V100.779Z" fill="#F9AC46"/>
<path d="M104.429 103.293H106.945V105.802H104.429V103.293Z" fill="#F9AC46"/>
<path d="M104.429 105.803H106.945V108.317H104.429V105.803Z" fill="#C0C8CE"/>
<path d="M101.917 93.2461H104.429V95.7555H101.917V93.2461Z" fill="#F9AC46"/>
<path d="M101.917 95.7559H104.429V98.2705H101.917V95.7559Z" fill="#F9AC46"/>
<path d="M101.917 98.2695H104.429V100.779H101.917V98.2695Z" fill="#F9AC46"/>
<path d="M101.917 100.779H104.429V103.289H101.917V100.779Z" fill="#F9AC46"/>
<path d="M101.917 103.293H104.429V105.802H101.917V103.293Z" fill="#F9AC46"/>
<path d="M101.917 105.803H104.429V108.317H101.917V105.803Z" fill="#C0C8CE"/>
<path d="M99.4006 93.2461H101.912V95.7555H99.4006V93.2461Z" fill="#F9AC46"/>
<path d="M99.4006 95.7559H101.912V98.2705H99.4006V95.7559Z" fill="#F9AC46"/>
<path d="M99.4006 105.803H101.912V108.317H99.4006V105.803Z" fill="#C0C8CE"/>
<path d="M99.4006 103.293H101.912V105.802H99.4006V103.293Z" fill="#F9AC46"/>
<path d="M99.4006 100.779H101.912V103.289H99.4006V100.779Z" fill="#F9AC46"/>
<path d="M99.4006 98.2695H101.912V100.779H99.4006V98.2695Z" fill="#F9AC46"/>
<path d="M106.946 88.2227H109.457V90.7321H106.946V88.2227Z" fill="#C0C8CE"/>
<path d="M101.917 88.2227H104.429V90.7321H101.917V88.2227Z" fill="#F9AC46"/>
<path d="M104.429 88.2227H106.945V90.7321H104.429V88.2227Z" fill="#F9AC46"/>
<path d="M94.3671 88.2227H96.8838V90.7321H94.3671V88.2227Z" fill="#C0C8CE"/>
<path d="M96.8889 88.2227H99.4004V90.7321H96.8889V88.2227Z" fill="#F9AC46"/>
<path d="M99.4006 88.2227H101.912V90.7321H99.4006V88.2227Z" fill="#F9AC46"/>
<path d="M106.946 95.7559H109.457V98.2705H106.946V95.7559Z" fill="#C0C8CE"/>
<path d="M106.946 98.2695H109.457V100.779H106.946V98.2695Z" fill="#C0C8CE"/>
<path d="M106.946 93.2461H109.457V95.7555H106.946V93.2461Z" fill="#C0C8CE"/>
<path d="M106.946 100.779H109.457V103.289H106.946V100.779Z" fill="#C0C8CE"/>
<path d="M106.946 90.7305H109.457V93.2399H106.946V90.7305Z" fill="#C0C8CE"/>
<path d="M106.946 108.318H109.457V110.828H106.946V108.318Z" fill="#C0C8CE"/>
<path d="M106.946 103.293H109.457V105.802H106.946V103.293Z" fill="#C0C8CE"/>
<path d="M106.946 105.803H109.457V108.317H106.946V105.803Z" fill="#C0C8CE"/>
<path d="M101.917 90.7305H104.429V93.2399H101.917V90.7305Z" fill="#F9AC46"/>
<path d="M101.917 108.318H104.429V110.828H101.917V108.318Z" fill="#C0C8CE"/>
<path d="M104.429 108.318H106.945V110.828H104.429V108.318Z" fill="#C0C8CE"/>
<path d="M104.429 90.7305H106.945V93.2399H104.429V90.7305Z" fill="#F9AC46"/>
<path d="M94.3671 105.803H96.8838V108.317H94.3671V105.803Z" fill="#C0C8CE"/>
<path d="M94.3671 90.7305H96.8838V93.2399H94.3671V90.7305Z" fill="#C0C8CE"/>
<path d="M94.3671 108.318H96.8838V110.828H94.3671V108.318Z" fill="#C0C8CE"/>
<path d="M94.3671 93.2461H96.8838V95.7555H94.3671V93.2461Z" fill="#C0C8CE"/>
<path d="M96.8889 108.318H99.4004V110.828H96.8889V108.318Z" fill="#C0C8CE"/>
<path d="M96.8889 105.803H99.4004V108.317H96.8889V105.803Z" fill="#C0C8CE"/>
<path d="M96.8889 90.7305H99.4004V93.2399H96.8889V90.7305Z" fill="#F9AC46"/>
<path d="M99.4006 108.318H101.912V110.828H99.4006V108.318Z" fill="#C0C8CE"/>
<path d="M99.4006 90.7305H101.912V93.2399H99.4006V90.7305Z" fill="#F9AC46"/>
<path d="M91.8615 105.803H94.373V108.317H91.8615V105.803Z" fill="#C0C8CE"/>
<path d="M94.3671 100.779H96.8838V103.289H94.3671V100.779Z" fill="#C0C8CE"/>
<path d="M94.3671 103.293H96.8838V105.802H94.3671V103.293Z" fill="#C0C8CE"/>
<path d="M94.3671 98.2695H96.8838V100.779H94.3671V98.2695Z" fill="#C0C8CE"/>
<path d="M94.3671 95.7559H96.8838V98.2705H94.3671V95.7559Z" fill="#C0C8CE"/>
<path d="M91.8615 95.7559H94.373V98.2705H91.8615V95.7559Z" fill="#C0C8CE"/>
<path d="M54.1415 65.6113H56.6582V68.1207H54.1415V65.6113Z" fill="white"/>
<path d="M54.1415 63.0957H56.6582V65.6051H54.1415V63.0957Z" fill="white"/>
<path d="M54.1415 60.5879H56.6582V63.0973H54.1415V60.5879Z" fill="white"/>
<path d="M54.1415 58.0723H56.6582V60.5869H54.1415V58.0723Z" fill="white"/>
<path d="M56.6575 125.904H59.1689V128.419H56.6575V125.904Z" fill="white"/>
<path d="M56.6575 123.391H59.1689V125.9H56.6575V123.391Z" fill="white"/>
<path d="M56.6575 120.881H59.1689V123.39H56.6575V120.881Z" fill="white"/>
<path d="M56.6575 118.367H59.1689V120.877H56.6575V118.367Z" fill="white"/>
<path d="M56.6575 115.852H59.1689V118.366H56.6575V115.852Z" fill="white"/>
<path d="M56.6575 113.342H59.1689V115.851H56.6575V113.342Z" fill="white"/>
<path d="M56.6575 110.828H59.1689V113.338H56.6575V110.828Z" fill="white"/>
<path d="M56.6575 65.6113H59.1689V68.1207H56.6575V65.6113Z" fill="white"/>
<path d="M56.6575 63.0957H59.1689V65.6051H56.6575V63.0957Z" fill="white"/>
<path d="M56.6575 60.5879H59.1689V63.0973H56.6575V60.5879Z" fill="white"/>
<path d="M59.175 128.414H61.6865V130.923H59.175V128.414Z" fill="white"/>
<path d="M59.175 125.904H61.6865V128.419H59.175V125.904Z" fill="white"/>
<path d="M59.175 123.391H61.6865V125.9H59.175V123.391Z" fill="white"/>
<path d="M59.175 120.881H61.6865V123.39H59.175V120.881Z" fill="white"/>
<path d="M59.175 118.367H61.6865V120.877H59.175V118.367Z" fill="white"/>
<path d="M59.175 115.852H61.6865V118.366H59.175V115.852Z" fill="white"/>
<path d="M59.175 113.342H61.6865V115.851H59.175V113.342Z" fill="white"/>
<path d="M59.175 110.828H61.6865V113.338H59.175V110.828Z" fill="white"/>
<path d="M59.175 108.318H61.6865V110.828H59.175V108.318Z" fill="white"/>
<path d="M59.175 63.0957H61.6865V65.6051H59.175V63.0957Z" fill="white"/>
<path d="M61.6857 130.93H64.1973V133.439H61.6857V130.93Z" fill="white"/>
<path d="M61.6857 128.414H64.1973V130.923H61.6857V128.414Z" fill="white"/>
<path d="M61.6857 125.904H64.1973V128.419H61.6857V125.904Z" fill="white"/>
<path d="M61.6857 123.391H64.1973V125.9H61.6857V123.391Z" fill="white"/>
<path d="M61.6857 120.881H64.1973V123.39H61.6857V120.881Z" fill="white"/>
<path d="M61.6857 118.367H64.1973V120.877H61.6857V118.367Z" fill="white"/>
<path d="M61.6857 115.852H64.1973V118.366H61.6857V115.852Z" fill="white"/>
<path d="M61.6857 113.342H64.1973V115.851H61.6857V113.342Z" fill="white"/>
<path d="M61.6857 110.828H64.1973V113.338H61.6857V110.828Z" fill="white"/>
<path d="M61.6857 108.318H64.1973V110.828H61.6857V108.318Z" fill="white"/>
<path d="M61.6857 105.803H64.1973V108.317H61.6857V105.803Z" fill="white"/>
<path d="M61.6857 103.293H64.1973V105.802H61.6857V103.293Z" fill="#E2D7D7"/>
<path d="M64.1971 130.93H66.7139V133.439H64.1971V130.93Z" fill="white"/>
<path d="M64.1971 128.414H66.7139V130.923H64.1971V128.414Z" fill="white"/>
<path d="M64.1971 125.904H66.7139V128.419H64.1971V125.904Z" fill="white"/>
<path d="M64.1971 123.391H66.7139V125.9H64.1971V123.391Z" fill="white"/>
<path d="M64.1971 120.881H66.7139V123.39H64.1971V120.881Z" fill="white"/>
<path d="M64.1971 118.367H66.7139V120.877H64.1971V118.367Z" fill="white"/>
<path d="M64.1971 115.852H66.7139V118.366H64.1971V115.852Z" fill="white"/>
<path d="M64.1971 113.342H66.7139V115.851H64.1971V113.342Z" fill="white"/>
<path d="M64.1971 110.828H66.7139V113.338H64.1971V110.828Z" fill="white"/>
<path d="M64.1971 108.318H66.7139V110.828H64.1971V108.318Z" fill="white"/>
<path d="M64.1971 105.803H66.7139V108.317H64.1971V105.803Z" fill="#E2D7D7"/>
<path d="M64.1971 103.293H66.7139V105.802H64.1971V103.293Z" fill="#E2D7D7"/>
<path d="M66.7141 130.93H69.2256V133.439H66.7141V130.93Z" fill="white"/>
<path d="M66.7141 128.414H69.2256V130.923H66.7141V128.414Z" fill="white"/>
<path d="M66.7141 125.904H69.2256V128.419H66.7141V125.904Z" fill="white"/>
<path d="M66.7141 123.391H69.2256V125.9H66.7141V123.391Z" fill="white"/>
<path d="M66.7141 120.881H69.2256V123.39H66.7141V120.881Z" fill="white"/>
<path d="M66.7141 118.367H69.2256V120.877H66.7141V118.367Z" fill="white"/>
<path d="M66.7141 115.852H69.2256V118.366H66.7141V115.852Z" fill="white"/>
<path d="M66.7141 113.342H69.2256V115.851H66.7141V113.342Z" fill="white"/>
<path d="M66.7141 110.828H69.2256V113.338H66.7141V110.828Z" fill="white"/>
<path d="M66.7141 108.318H69.2256V110.828H66.7141V108.318Z" fill="white"/>
<path d="M66.7141 105.803H69.2256V108.317H66.7141V105.803Z" fill="#E2D7D7"/>
<path d="M66.7141 103.293H69.2256V105.802H66.7141V103.293Z" fill="#E2D7D7"/>
<path d="M69.2316 130.93H71.7432V133.439H69.2316V130.93Z" fill="white"/>
<path d="M69.2316 128.414H71.7432V130.923H69.2316V128.414Z" fill="white"/>
<path d="M69.2316 125.904H71.7432V128.419H69.2316V125.904Z" fill="white"/>
<path d="M69.2316 123.391H71.7432V125.9H69.2316V123.391Z" fill="white"/>
<path d="M69.2316 120.881H71.7432V123.39H69.2316V120.881Z" fill="white"/>
<path d="M69.2316 118.367H71.7432V120.877H69.2316V118.367Z" fill="white"/>
<path d="M69.2316 115.852H71.7432V118.366H69.2316V115.852Z" fill="white"/>
<path d="M69.2316 113.342H71.7432V115.851H69.2316V113.342Z" fill="white"/>
<path d="M69.2316 110.828H71.7432V113.338H69.2316V110.828Z" fill="white"/>
<path d="M69.2316 108.318H71.7432V110.828H69.2316V108.318Z" fill="white"/>
<path d="M69.2316 105.803H71.7432V108.317H69.2316V105.803Z" fill="#E2D7D7"/>
<path d="M69.2316 103.293H71.7432V105.802H69.2316V103.293Z" fill="#E2D7D7"/>
<path d="M71.7424 130.93H74.2539V133.439H71.7424V130.93Z" fill="white"/>
<path d="M71.7424 128.414H74.2539V130.923H71.7424V128.414Z" fill="white"/>
<path d="M71.7424 125.904H74.2539V128.419H71.7424V125.904Z" fill="white"/>
<path d="M71.7424 123.391H74.2539V125.9H71.7424V123.391Z" fill="white"/>
<path d="M71.7424 120.881H74.2539V123.39H71.7424V120.881Z" fill="white"/>
<path d="M71.7424 118.367H74.2539V120.877H71.7424V118.367Z" fill="white"/>
<path d="M71.7424 115.852H74.2539V118.366H71.7424V115.852Z" fill="white"/>
<path d="M71.7424 113.342H74.2539V115.851H71.7424V113.342Z" fill="white"/>
<path d="M71.7424 110.828H74.2539V113.338H71.7424V110.828Z" fill="white"/>
<path d="M71.7424 108.318H74.2539V110.828H71.7424V108.318Z" fill="white"/>
<path d="M71.7424 105.803H74.2539V108.317H71.7424V105.803Z" fill="#E2D7D7"/>
<path d="M71.7424 103.293H74.2539V105.802H71.7424V103.293Z" fill="#E2D7D7"/>
<path d="M74.2538 130.93H76.7705V133.439H74.2538V130.93Z" fill="white"/>
<path d="M74.2538 128.414H76.7705V130.923H74.2538V128.414Z" fill="white"/>
<path d="M74.2538 125.904H76.7705V128.419H74.2538V125.904Z" fill="white"/>
<path d="M74.2538 123.391H76.7705V125.9H74.2538V123.391Z" fill="white"/>
<path d="M74.2538 120.881H76.7705V123.39H74.2538V120.881Z" fill="white"/>
<path d="M74.2538 118.367H76.7705V120.877H74.2538V118.367Z" fill="white"/>
<path d="M74.2538 115.852H76.7705V118.366H74.2538V115.852Z" fill="white"/>
<path d="M74.2538 113.342H76.7705V115.851H74.2538V113.342Z" fill="white"/>
<path d="M74.2538 110.828H76.7705V113.338H74.2538V110.828Z" fill="white"/>
<path d="M74.2538 108.318H76.7705V110.828H74.2538V108.318Z" fill="white"/>
<path d="M74.2538 105.803H76.7705V108.317H74.2538V105.803Z" fill="white"/>
<path d="M74.2538 103.293H76.7705V105.802H74.2538V103.293Z" fill="#E2D7D7"/>
<path d="M76.7756 128.414H79.2871V130.923H76.7756V128.414Z" fill="white"/>
<path d="M76.7756 125.904H79.2871V128.419H76.7756V125.904Z" fill="white"/>
<path d="M76.7756 123.391H79.2871V125.9H76.7756V123.391Z" fill="white"/>
<path d="M76.7756 120.881H79.2871V123.39H76.7756V120.881Z" fill="white"/>
<path d="M76.7756 118.367H79.2871V120.877H76.7756V118.367Z" fill="white"/>
<path d="M76.7756 115.852H79.2871V118.366H76.7756V115.852Z" fill="white"/>
<path d="M76.7756 113.342H79.2871V115.851H76.7756V113.342Z" fill="white"/>
<path d="M76.7756 110.828H79.2871V113.338H76.7756V110.828Z" fill="white"/>
<path d="M76.7756 108.318H79.2871V110.828H76.7756V108.318Z" fill="white"/>
<path d="M76.7756 63.0957H79.2871V65.6051H76.7756V63.0957Z" fill="white"/>
<path d="M79.2873 125.904H81.7988V128.419H79.2873V125.904Z" fill="white"/>
<path d="M79.2873 123.391H81.7988V125.9H79.2873V123.391Z" fill="white"/>
<path d="M79.2873 120.881H81.7988V123.39H79.2873V120.881Z" fill="white"/>
<path d="M79.2873 118.367H81.7988V120.877H79.2873V118.367Z" fill="white"/>
<path d="M79.2873 115.852H81.7988V118.366H79.2873V115.852Z" fill="white"/>
<path d="M79.2873 113.342H81.7988V115.851H79.2873V113.342Z" fill="white"/>
<path d="M79.2873 110.828H81.7988V113.338H79.2873V110.828Z" fill="white"/>
<path d="M79.2873 65.6113H81.7988V68.1207H79.2873V65.6113Z" fill="white"/>
<path d="M79.2873 63.0957H81.7988V65.6051H79.2873V63.0957Z" fill="white"/>
<path d="M79.2873 60.5879H81.7988V63.0973H79.2873V60.5879Z" fill="white"/>
<path d="M81.8049 65.6113H84.3164V68.1207H81.8049V65.6113Z" fill="white"/>
<path d="M81.8049 63.0957H84.3164V65.6051H81.8049V63.0957Z" fill="white"/>
<path d="M81.8049 60.5879H84.3164V63.0973H81.8049V60.5879Z" fill="white"/>
<path d="M81.8049 58.0723H84.3164V60.5869H81.8049V58.0723Z" fill="white"/>
<path d="M89.3439 95.7559H91.8555V98.2705H89.3439V95.7559Z" fill="#C0C8CE"/>
<path d="M36.5389 90.7305H39.0557V93.2399H36.5389V90.7305Z" fill="#FFF8F0"/>
<path d="M36.5389 88.2227H39.0557V90.7321H36.5389V88.2227Z" fill="#FFF8F0"/>
<path d="M36.5389 85.707H39.0557V88.2217H36.5389V85.707Z" fill="#FFF8F0"/>
<path d="M34.0275 90.7305H36.5391V93.2399H34.0275V90.7305Z" fill="#FFBB69"/>
<path d="M39.0617 103.295H41.5732V105.804H39.0617V103.295Z" fill="#FFBB69"/>
<path d="M31.5158 103.295H34.0273V105.804H31.5158V103.295Z" fill="#FFBB69"/>
<path d="M31.5158 100.779H34.0273V103.289H31.5158V100.779Z" fill="#FFF8F0"/>
<path d="M36.5389 98.2695H39.0557V100.779H36.5389V98.2695Z" fill="#FFBB69"/>
<path d="M28.9992 108.316H31.5107V110.826H28.9992V108.316Z" fill="#E6EBEF"/>
<path d="M28.9992 105.805H31.5107V108.319H28.9992V105.805Z" fill="#E6EBEF"/>
<path d="M28.9992 103.295H31.5107V105.804H28.9992V103.295Z" fill="#E6EBEF"/>
<path d="M28.9992 100.779H31.5107V103.289H28.9992V100.779Z" fill="#E6EBEF"/>
<path d="M28.9992 98.2695H31.5107V100.779H28.9992V98.2695Z" fill="#E6EBEF"/>
<path d="M28.9992 95.7539H31.5107V98.2685H28.9992V95.7539Z" fill="#E6EBEF"/>
<path d="M28.9992 93.2461H31.5107V95.7555H28.9992V93.2461Z" fill="#E6EBEF"/>
<path d="M28.9992 90.7305H31.5107V93.2399H28.9992V90.7305Z" fill="#E6EBEF"/>
<path d="M28.9992 88.2227H31.5107V90.7321H28.9992V88.2227Z" fill="#E6EBEF"/>
<path d="M31.5158 108.316H34.0273V110.826H31.5158V108.316Z" fill="#E6EBEF"/>
<path d="M31.5158 105.805H34.0273V108.319H31.5158V105.805Z" fill="#E6EBEF"/>
<path d="M31.5158 98.2695H34.0273V100.779H31.5158V98.2695Z" fill="#FFBB69"/>
<path d="M34.0275 108.316H36.5391V110.826H34.0275V108.316Z" fill="#E6EBEF"/>
<path d="M34.0275 105.805H36.5391V108.319H34.0275V105.805Z" fill="#E6EBEF"/>
<path d="M36.5389 105.805H39.0557V108.319H36.5389V105.805Z" fill="#E6EBEF"/>
<path d="M39.0617 105.805H41.5732V108.319H39.0617V105.805Z" fill="#C0C8CE"/>
<path d="M39.0617 93.2461H41.5732V95.7555H39.0617V93.2461Z" fill="#FFBB69"/>
<path d="M41.5725 108.316H44.084V110.826H41.5725V108.316Z" fill="#C0C8CE"/>
<path d="M41.5725 105.805H44.084V108.319H41.5725V105.805Z" fill="#C0C8CE"/>
<path d="M41.5725 103.295H44.084V105.804H41.5725V103.295Z" fill="#C0C8CE"/>
<path d="M41.5725 100.779H44.084V103.289H41.5725V100.779Z" fill="#E6EBEF"/>
<path d="M41.5725 98.2695H44.084V100.779H41.5725V98.2695Z" fill="#E6EBEF"/>
<path d="M41.5725 95.7539H44.084V98.2685H41.5725V95.7539Z" fill="#E6EBEF"/>
<path d="M41.5725 93.2461H44.084V95.7555H41.5725V93.2461Z" fill="#E6EBEF"/>
<path d="M41.5725 90.7305H44.084V93.2399H41.5725V90.7305Z" fill="#E6EBEF"/>
<path d="M41.5725 88.2227H44.084V90.7321H41.5725V88.2227Z" fill="#E6EBEF"/>
<path d="M44.0891 103.295H46.6006V105.804H44.0891V103.295Z" fill="white"/>
<path d="M44.0891 100.779H46.6006V103.289H44.0891V100.779Z" fill="#9E6CD8"/>
<path d="M44.0891 98.2695H46.6006V100.779H44.0891V98.2695Z" fill="#9E6CD8"/>
<path d="M46.5956 105.805H49.1123V108.319H46.5956V105.805Z" fill="white"/>
<path d="M46.5956 103.295H49.1123V105.804H46.5956V103.295Z" fill="white"/>
<path d="M46.5956 100.779H49.1123V103.289H46.5956V100.779Z" fill="white"/>
<path d="M46.5956 98.2695H49.1123V100.779H46.5956V98.2695Z" fill="#9E6CD8"/>
<path d="M49.1184 108.316H51.6299V110.826H49.1184V108.316Z" fill="white"/>
<path d="M49.1184 105.805H51.6299V108.319H49.1184V105.805Z" fill="white"/>
<path d="M49.1184 103.295H51.6299V105.804H49.1184V103.295Z" fill="white"/>
<path d="M51.6301 108.316H54.1416V110.826H51.6301V108.316Z" fill="white"/>
<path d="M51.6301 105.805H54.1416V108.319H51.6301V105.805Z" fill="white"/>
<path d="M54.1415 108.316H56.6582V110.826H54.1415V108.316Z" fill="white"/>
<path d="M54.1415 105.805H56.6582V108.319H54.1415V105.805Z" fill="white"/>
<path d="M56.6575 143.484H59.1689V145.999H56.6575V143.484Z" fill="#9E6CD8"/>
<path d="M56.6575 140.977H59.1689V143.486H56.6575V140.977Z" fill="#9E6CD8"/>
<path d="M56.6575 108.316H59.1689V110.826H56.6575V108.316Z" fill="white"/>
<path d="M56.6575 105.805H59.1689V108.319H56.6575V105.805Z" fill="white"/>
<path d="M59.175 143.484H61.6865V145.999H59.175V143.484Z" fill="#9E6CD8"/>
<path d="M59.175 140.977H61.6865V143.486H59.175V140.977Z" fill="#9E6CD8"/>
<path d="M59.175 138.463H61.6865V140.972H59.175V138.463Z" fill="#9E6CD8"/>
<path d="M59.175 135.953H61.6865V138.468H59.175V135.953Z" fill="white"/>
<path d="M59.175 133.438H61.6865V135.947H59.175V133.438Z" fill="white"/>
<path d="M59.175 130.928H61.6865V133.437H59.175V130.928Z" fill="white"/>
<path d="M59.175 128.414H61.6865V130.923H59.175V128.414Z" fill="white"/>
<path d="M59.175 105.805H61.6865V108.319H59.175V105.805Z" fill="white"/>
<path d="M61.6857 143.484H64.1973V145.999H61.6857V143.484Z" fill="#9E6CD8"/>
<path d="M61.6857 140.977H64.1973V143.486H61.6857V140.977Z" fill="#9E6CD8"/>
<path d="M61.6857 138.463H64.1973V140.972H61.6857V138.463Z" fill="#9E6CD8"/>
<path d="M61.6857 135.953H64.1973V138.468H61.6857V135.953Z" fill="white"/>
<path d="M61.6857 133.438H64.1973V135.947H61.6857V133.438Z" fill="white"/>
<path d="M74.2538 143.484H76.7705V145.999H74.2538V143.484Z" fill="#9E6CD8"/>
<path d="M74.2538 140.977H76.7705V143.486H74.2538V140.977Z" fill="#9E6CD8"/>
<path d="M74.2538 138.463H76.7705V140.972H74.2538V138.463Z" fill="#9E6CD8"/>
<path d="M74.2538 135.953H76.7705V138.468H74.2538V135.953Z" fill="white"/>
<path d="M74.2538 133.438H76.7705V135.947H74.2538V133.438Z" fill="white"/>
<path d="M76.7756 143.484H79.2871V145.999H76.7756V143.484Z" fill="#9E6CD8"/>
<path d="M76.7756 140.977H79.2871V143.486H76.7756V140.977Z" fill="#9E6CD8"/>
<path d="M76.7756 138.463H79.2871V140.972H76.7756V138.463Z" fill="#9E6CD8"/>
<path d="M76.7756 135.953H79.2871V138.468H76.7756V135.953Z" fill="white"/>
<path d="M76.7756 133.438H79.2871V135.947H76.7756V133.438Z" fill="white"/>
<path d="M76.7756 130.928H79.2871V133.437H76.7756V130.928Z" fill="white"/>
<path d="M76.7756 105.805H79.2871V108.319H76.7756V105.805Z" fill="white"/>
<path d="M79.2873 143.484H81.7988V145.999H79.2873V143.484Z" fill="#9E6CD8"/>
<path d="M79.2873 140.977H81.7988V143.486H79.2873V140.977Z" fill="#9E6CD8"/>
<path d="M79.2873 108.316H81.7988V110.826H79.2873V108.316Z" fill="white"/>
<path d="M79.2873 105.805H81.7988V108.319H79.2873V105.805Z" fill="white"/>
<path d="M81.8039 143.484H84.3154V145.999H81.8039V143.484Z" fill="#9E6CD8"/>
<path d="M81.8039 140.977H84.3154V143.486H81.8039V140.977Z" fill="#9E6CD8"/>
<path d="M81.8039 108.316H84.3154V110.826H81.8039V108.316Z" fill="white"/>
<path d="M81.8039 105.805H84.3154V108.319H81.8039V105.805Z" fill="white"/>
<path d="M84.3104 108.316H86.8271V110.826H84.3104V108.316Z" fill="white"/>
<path d="M84.3104 105.805H86.8271V108.319H84.3104V105.805Z" fill="white"/>
<path d="M86.8322 108.316H89.3438V110.826H86.8322V108.316Z" fill="white"/>
<path d="M86.8322 105.805H89.3438V108.319H86.8322V105.805Z" fill="white"/>
<path d="M86.8322 103.295H89.3438V105.804H86.8322V103.295Z" fill="white"/>
<path d="M89.3439 105.805H91.8555V108.319H89.3439V105.805Z" fill="white"/>
<path d="M89.3439 103.295H91.8555V105.804H89.3439V103.295Z" fill="white"/>
<path d="M89.3439 100.779H91.8555V103.289H89.3439V100.779Z" fill="white"/>
<path d="M89.3439 98.2695H91.8555V100.779H89.3439V98.2695Z" fill="#9E6CD8"/>
<path d="M91.8615 103.295H94.373V105.804H91.8615V103.295Z" fill="white"/>
<path d="M91.8615 100.779H94.373V103.289H91.8615V100.779Z" fill="#9E6CD8"/>
<path d="M91.8615 98.2695H94.373V100.779H91.8615V98.2695Z" fill="#9E6CD8"/>
<path d="M94.3671 100.779H96.8838V103.289H94.3671V100.779Z" fill="#E6EBEF"/>
<path d="M94.3671 98.2695H96.8838V100.779H94.3671V98.2695Z" fill="#E6EBEF"/>
<path d="M94.3671 95.7539H96.8838V98.2685H94.3671V95.7539Z" fill="#E6EBEF"/>
<path d="M94.3671 93.2461H96.8838V95.7555H94.3671V93.2461Z" fill="#E6EBEF"/>
<path d="M94.3671 90.7305H96.8838V93.2399H94.3671V90.7305Z" fill="#E6EBEF"/>
<path d="M96.8889 105.805H99.4004V108.319H96.8889V105.805Z" fill="#E6EBEF"/>
<path d="M96.8889 103.295H99.4004V105.804H96.8889V103.295Z" fill="#FFC280"/>
<path d="M96.8889 98.2695H99.4004V100.779H96.8889V98.2695Z" fill="#FFBB69"/>
<path d="M96.8889 90.7305H99.4004V93.2399H96.8889V90.7305Z" fill="#FFC280"/>
<path d="M99.4006 108.316H101.912V110.826H99.4006V108.316Z" fill="#C0C8CE"/>
<path d="M99.4006 105.805H101.912V108.319H99.4006V105.805Z" fill="#E6EBEF"/>
<path d="M99.4006 93.2461H101.912V95.7555H99.4006V93.2461Z" fill="#FFBB69"/>
<path d="M101.917 108.316H104.429V110.826H101.917V108.316Z" fill="#E6EBEF"/>
<path d="M101.917 105.805H104.429V108.319H101.917V105.805Z" fill="#E6EBEF"/>
<path d="M101.917 103.295H104.429V105.804H101.917V103.295Z" fill="#FFBB69"/>
<path d="M104.429 108.316H106.945V110.826H104.429V108.316Z" fill="#E6EBEF"/>
<path d="M104.429 105.805H106.945V108.319H104.429V105.805Z" fill="#E6EBEF"/>
<path d="M104.429 98.2695H106.945V100.779H104.429V98.2695Z" fill="#FFBB69"/>
<path d="M104.429 90.7305H106.945V93.2399H104.429V90.7305Z" fill="#FFC280"/>
<path d="M106.946 108.316H109.457V110.826H106.946V108.316Z" fill="#E6EBEF"/>
<path d="M106.946 105.805H109.457V108.319H106.946V105.805Z" fill="#E6EBEF"/>
<path d="M106.946 103.295H109.457V105.804H106.946V103.295Z" fill="#E6EBEF"/>
<path d="M106.946 100.779H109.457V103.289H106.946V100.779Z" fill="#E6EBEF"/>
<path d="M106.946 98.2695H109.457V100.779H106.946V98.2695Z" fill="#E6EBEF"/>
<path d="M106.946 95.7539H109.457V98.2685H106.946V95.7539Z" fill="#E6EBEF"/>
<path d="M106.946 93.2461H109.457V95.7555H106.946V93.2461Z" fill="#E6EBEF"/>
<path d="M106.946 90.7305H109.457V93.2399H106.946V90.7305Z" fill="#E6EBEF"/>
<path d="M29.0002 90.7305H31.5117V93.2399H29.0002V90.7305Z" fill="#FFF8F0"/>
<path d="M29.0002 88.2227H31.5117V90.7321H29.0002V88.2227Z" fill="#FFF8F0"/>
<path d="M29.0002 85.707H31.5117V88.2217H29.0002V85.707Z" fill="#FFF8F0"/>
<path d="M29.0002 83.1973H31.5117V85.7067H29.0002V83.1973Z" fill="#FFF8F0"/>
<path d="M31.5158 98.2695H34.0273V100.779H31.5158V98.2695Z" fill="#FFF8F0"/>
<path d="M31.5158 95.7559H34.0273V98.2705H31.5158V95.7559Z" fill="#FFF8F0"/>
<path d="M31.5158 93.2461H34.0273V95.7555H31.5158V93.2461Z" fill="#FFF8F0"/>
<path d="M31.5158 90.7305H34.0273V93.2399H31.5158V90.7305Z" fill="#FFF8F0"/>
<path d="M31.5158 88.2227H34.0273V90.7321H31.5158V88.2227Z" fill="#FFF8F0"/>
<path d="M31.5158 85.707H34.0273V88.2217H31.5158V85.707Z" fill="#EFE5DA"/>
<path d="M31.5158 83.1973H34.0273V85.7067H31.5158V83.1973Z" fill="#FFF8F0"/>
<path d="M31.5158 80.6836H34.0273V83.193H31.5158V80.6836Z" fill="#FFF8F0"/>
<path d="M34.0275 85.707H36.5391V88.2217H34.0275V85.707Z" fill="#FFF8F0"/>
<path d="M34.0275 83.1973H36.5391V85.7067H34.0275V83.1973Z" fill="#FFF8F0"/>
<path d="M34.0275 80.6836H36.5391V83.193H34.0275V80.6836Z" fill="#EFE5DA"/>
<path d="M36.5389 85.707H39.0557V88.2217H36.5389V85.707Z" fill="#FFF8F0"/>
<path d="M36.5389 83.1973H39.0557V85.7067H36.5389V83.1973Z" fill="#FFF8F0"/>
<path d="M36.5389 80.6836H39.0557V83.193H36.5389V80.6836Z" fill="#FFF8F0"/>
<path d="M39.0617 85.707H41.5732V88.2217H39.0617V85.707Z" fill="#FFF8F0"/>
<path d="M39.0617 83.1973H41.5732V85.7067H39.0617V83.1973Z" fill="#EFE5DA"/>
<path d="M39.0617 80.6836H41.5732V83.193H39.0617V80.6836Z" fill="#FFF8F0"/>
<path d="M41.5734 85.707H44.085V88.2217H41.5734V85.707Z" fill="#FFF8F0"/>
<path d="M41.5734 83.1973H44.085V85.7067H41.5734V83.1973Z" fill="#FFF8F0"/>
<path d="M46.5956 83.1973H49.1123V85.7067H46.5956V83.1973Z" fill="#531484"/>
<path d="M49.1184 83.1973H51.6299V85.7067H49.1184V83.1973Z" fill="#531484"/>
<path d="M49.1184 80.6836H51.6299V83.193H49.1184V80.6836Z" fill="#531484"/>
<path d="M51.6301 83.1973H54.1416V85.7067H51.6301V83.1973Z" fill="#531484"/>
<path d="M51.6301 80.6836H54.1416V83.193H51.6301V80.6836Z" fill="#531484"/>
<path d="M51.6301 78.1719H54.1416V80.6813H51.6301V78.1719Z" fill="#531484"/>
<path d="M51.6301 75.6602H54.1416V78.1748H51.6301V75.6602Z" fill="#531484"/>
<path d="M51.6301 73.1445H54.1416V75.6539H51.6301V73.1445Z" fill="#531484"/>
<path d="M54.1415 80.6836H56.6582V83.193H54.1415V80.6836Z" fill="#531484"/>
<path d="M54.1415 78.1719H56.6582V80.6813H54.1415V78.1719Z" fill="#531484"/>
<path d="M54.1415 75.6602H56.6582V78.1748H54.1415V75.6602Z" fill="#531484"/>
<path d="M54.1415 73.1445H56.6582V75.6539H54.1415V73.1445Z" fill="#531484"/>
<path d="M54.1415 70.6348H56.6582V73.1442H54.1415V70.6348Z" fill="#531484"/>
<path d="M54.1415 68.1211H56.6582V70.6357H54.1415V68.1211Z" fill="#531484"/>
<path d="M54.1415 65.6113H56.6582V68.1207H54.1415V65.6113Z" fill="#FFC0C0"/>
<path d="M54.1415 63.0957H56.6582V65.6051H54.1415V63.0957Z" fill="#FFC0C0"/>
<path d="M56.6575 125.904H59.1689V128.419H56.6575V125.904Z" fill="#5742C1"/>
<path d="M56.6575 123.391H59.1689V125.9H56.6575V123.391Z" fill="#5742C1"/>
<path d="M56.6575 65.6113H59.1689V68.1207H56.6575V65.6113Z" fill="#FFC0C0"/>
<path d="M59.175 133.438H61.6865V135.947H59.175V133.438Z" fill="#5742C1"/>
<path d="M59.175 130.93H61.6865V133.439H59.175V130.93Z" fill="#5742C1"/>
<path d="M59.175 128.414H61.6865V130.923H59.175V128.414Z" fill="#5742C1"/>
<path d="M59.175 125.904H61.6865V128.419H59.175V125.904Z" fill="#5742C1"/>
<path d="M59.175 123.391H61.6865V125.9H59.175V123.391Z" fill="#5742C1"/>
<path d="M59.175 120.881H61.6865V123.39H59.175V120.881Z" fill="#5742C1"/>
<path d="M59.175 118.367H61.6865V120.877H59.175V118.367Z" fill="#5742C1"/>
<path d="M59.175 115.852H61.6865V118.366H59.175V115.852Z" fill="#5742C1"/>
<path d="M59.175 113.342H61.6865V115.851H59.175V113.342Z" fill="#5742C1"/>
<path d="M59.175 110.828H61.6865V113.338H59.175V110.828Z" fill="#5742C1"/>
<path d="M59.175 108.318H61.6865V110.828H59.175V108.318Z" fill="#5742C1"/>
<path d="M59.175 105.803H61.6865V108.317H59.175V105.803Z" fill="#5742C1"/>
<path d="M59.175 60.5879H61.6865V63.0973H59.175V60.5879Z" fill="#531484"/>
<path d="M61.6857 133.438H64.1973V135.947H61.6857V133.438Z" fill="#5742C1"/>
<path d="M61.6857 130.93H64.1973V133.439H61.6857V130.93Z" fill="#5742C1"/>
<path d="M61.6857 128.414H64.1973V130.923H61.6857V128.414Z" fill="#5742C1"/>
<path d="M61.6857 125.904H64.1973V128.419H61.6857V125.904Z" fill="#5742C1"/>
<path d="M61.6857 123.391H64.1973V125.9H61.6857V123.391Z" fill="#5742C1"/>
<path d="M61.6857 120.881H64.1973V123.39H61.6857V120.881Z" fill="#5742C1"/>
<path d="M61.6857 118.367H64.1973V120.877H61.6857V118.367Z" fill="#5742C1"/>
<path d="M61.6857 115.852H64.1973V118.366H61.6857V115.852Z" fill="#5742C1"/>
<path d="M61.6857 113.342H64.1973V115.851H61.6857V113.342Z" fill="#5742C1"/>
<path d="M61.6857 110.828H64.1973V113.338H61.6857V110.828Z" fill="#5742C1"/>
<path d="M61.6857 108.318H64.1973V110.828H61.6857V108.318Z" fill="#5742C1"/>
<path d="M61.6857 105.803H64.1973V108.317H61.6857V105.803Z" fill="#5742C1"/>
<path d="M61.6857 78.1719H64.1973V80.6813H61.6857V78.1719Z" fill="#353535"/>
<path d="M61.6857 75.6602H64.1973V78.1748H61.6857V75.6602Z" fill="#353535"/>
<path d="M61.6857 63.0957H64.1973V65.6051H61.6857V63.0957Z" fill="#531484"/>
<path d="M61.6857 60.5879H64.1973V63.0973H61.6857V60.5879Z" fill="#531484"/>
<path d="M61.6857 58.0723H64.1973V60.5869H61.6857V58.0723Z" fill="#531484"/>
<path d="M64.1971 130.93H66.7139V133.439H64.1971V130.93Z" fill="#5742C1"/>
<path d="M64.1971 128.414H66.7139V130.923H64.1971V128.414Z" fill="#5742C1"/>
<path d="M64.1971 125.904H66.7139V128.419H64.1971V125.904Z" fill="#5742C1"/>
<path d="M64.1971 123.391H66.7139V125.9H64.1971V123.391Z" fill="#5742C1"/>
<path d="M64.1971 115.852H66.7139V118.366H64.1971V115.852Z" fill="#5742C1"/>
<path d="M64.1971 113.342H66.7139V115.851H64.1971V113.342Z" fill="#5742C1"/>
<path d="M64.1971 83.1973H66.7139V85.7067H64.1971V83.1973Z" fill="#3F2A5E"/>
<path d="M64.1971 68.1211H66.7139V70.6357H64.1971V68.1211Z" fill="#531484"/>
<path d="M64.1971 65.6113H66.7139V68.1207H64.1971V65.6113Z" fill="#531484"/>
<path d="M64.1971 63.0957H66.7139V65.6051H64.1971V63.0957Z" fill="#531484"/>
<path d="M64.1971 60.5879H66.7139V63.0973H64.1971V60.5879Z" fill="#531484"/>
<path d="M64.1971 58.0723H66.7139V60.5869H64.1971V58.0723Z" fill="#531484"/>
<path d="M66.7141 130.93H69.2256V133.439H66.7141V130.93Z" fill="#5742C1"/>
<path d="M66.7141 128.414H69.2256V130.923H66.7141V128.414Z" fill="#5742C1"/>
<path d="M66.7141 125.904H69.2256V128.419H66.7141V125.904Z" fill="#5742C1"/>
<path d="M66.7141 123.391H69.2256V125.9H66.7141V123.391Z" fill="#5742C1"/>
<path d="M66.7141 115.852H69.2256V118.366H66.7141V115.852Z" fill="#5742C1"/>
<path d="M66.7141 113.342H69.2256V115.851H66.7141V113.342Z" fill="#5742C1"/>
<path d="M66.7141 68.1211H69.2256V70.6357H66.7141V68.1211Z" fill="#531484"/>
<path d="M66.7141 65.6113H69.2256V68.1207H66.7141V65.6113Z" fill="#531484"/>
<path d="M66.7141 63.0957H69.2256V65.6051H66.7141V63.0957Z" fill="#531484"/>
<path d="M66.7141 60.5879H69.2256V63.0973H66.7141V60.5879Z" fill="#531484"/>
<path d="M66.7141 58.0723H69.2256V60.5869H66.7141V58.0723Z" fill="#531484"/>
<path d="M69.2316 130.93H71.7432V133.439H69.2316V130.93Z" fill="#5742C1"/>
<path d="M69.2316 128.414H71.7432V130.923H69.2316V128.414Z" fill="#5742C1"/>
<path d="M69.2316 125.904H71.7432V128.419H69.2316V125.904Z" fill="#5742C1"/>
<path d="M69.2316 123.391H71.7432V125.9H69.2316V123.391Z" fill="#5742C1"/>
<path d="M69.2316 115.852H71.7432V118.366H69.2316V115.852Z" fill="#5742C1"/>
<path d="M69.2316 113.342H71.7432V115.851H69.2316V113.342Z" fill="#5742C1"/>
<path d="M69.2316 68.1211H71.7432V70.6357H69.2316V68.1211Z" fill="#531484"/>
<path d="M69.2316 65.6113H71.7432V68.1207H69.2316V65.6113Z" fill="#531484"/>
<path d="M69.2316 63.0957H71.7432V65.6051H69.2316V63.0957Z" fill="#531484"/>
<path d="M69.2316 60.5879H71.7432V63.0973H69.2316V60.5879Z" fill="#531484"/>
<path d="M69.2316 58.0723H71.7432V60.5869H69.2316V58.0723Z" fill="#531484"/>
<path d="M71.7424 130.93H74.2539V133.439H71.7424V130.93Z" fill="#5742C1"/>
<path d="M71.7424 128.414H74.2539V130.923H71.7424V128.414Z" fill="#5742C1"/>
<path d="M71.7424 125.904H74.2539V128.419H71.7424V125.904Z" fill="#5742C1"/>
<path d="M71.7424 123.391H74.2539V125.9H71.7424V123.391Z" fill="#5742C1"/>
<path d="M71.7424 115.852H74.2539V118.366H71.7424V115.852Z" fill="#5742C1"/>
<path d="M71.7424 113.342H74.2539V115.851H71.7424V113.342Z" fill="#5742C1"/>
<path d="M71.7424 83.1973H74.2539V85.7067H71.7424V83.1973Z" fill="#3F2A5E"/>
<path d="M71.7424 65.6113H74.2539V68.1207H71.7424V65.6113Z" fill="#531484"/>
<path d="M71.7424 63.0957H74.2539V65.6051H71.7424V63.0957Z" fill="#531484"/>
<path d="M71.7424 60.5879H74.2539V63.0973H71.7424V60.5879Z" fill="#531484"/>
<path d="M71.7424 58.0723H74.2539V60.5869H71.7424V58.0723Z" fill="#531484"/>
<path d="M74.2538 133.438H76.7705V135.947H74.2538V133.438Z" fill="#5742C1"/>
<path d="M74.2538 130.93H76.7705V133.439H74.2538V130.93Z" fill="#5742C1"/>
<path d="M74.2538 128.414H76.7705V130.923H74.2538V128.414Z" fill="#5742C1"/>
<path d="M74.2538 125.904H76.7705V128.419H74.2538V125.904Z" fill="#5742C1"/>
<path d="M74.2538 123.391H76.7705V125.9H74.2538V123.391Z" fill="#5742C1"/>
<path d="M74.2538 120.881H76.7705V123.39H74.2538V120.881Z" fill="#5742C1"/>
<path d="M74.2538 118.367H76.7705V120.877H74.2538V118.367Z" fill="#5742C1"/>
<path d="M74.2538 115.852H76.7705V118.366H74.2538V115.852Z" fill="#5742C1"/>
<path d="M74.2538 113.342H76.7705V115.851H74.2538V113.342Z" fill="#5742C1"/>
<path d="M74.2538 110.828H76.7705V113.338H74.2538V110.828Z" fill="#5742C1"/>
<path d="M74.2538 108.318H76.7705V110.828H74.2538V108.318Z" fill="#5742C1"/>
<path d="M74.2538 105.803H76.7705V108.317H74.2538V105.803Z" fill="#5742C1"/>
<path d="M74.2538 78.1719H76.7705V80.6813H74.2538V78.1719Z" fill="#353535"/>
<path d="M74.2538 75.6602H76.7705V78.1748H74.2538V75.6602Z" fill="#353535"/>
<path d="M74.2538 63.0957H76.7705V65.6051H74.2538V63.0957Z" fill="#531484"/>
<path d="M74.2538 60.5879H76.7705V63.0973H74.2538V60.5879Z" fill="#531484"/>
<path d="M74.2538 58.0723H76.7705V60.5869H74.2538V58.0723Z" fill="#531484"/>
<path d="M76.7756 133.438H79.2871V135.947H76.7756V133.438Z" fill="#5742C1"/>
<path d="M76.7756 130.93H79.2871V133.439H76.7756V130.93Z" fill="#5742C1"/>
<path d="M76.7756 128.414H79.2871V130.923H76.7756V128.414Z" fill="#5742C1"/>
<path d="M76.7756 125.904H79.2871V128.419H76.7756V125.904Z" fill="#5742C1"/>
<path d="M76.7756 123.391H79.2871V125.9H76.7756V123.391Z" fill="#5742C1"/>
<path d="M76.7756 120.881H79.2871V123.39H76.7756V120.881Z" fill="#5742C1"/>
<path d="M76.7756 118.367H79.2871V120.877H76.7756V118.367Z" fill="#5742C1"/>
<path d="M76.7756 115.852H79.2871V118.366H76.7756V115.852Z" fill="#5742C1"/>
<path d="M76.7756 113.342H79.2871V115.851H76.7756V113.342Z" fill="#5742C1"/>
<path d="M76.7756 110.828H79.2871V113.338H76.7756V110.828Z" fill="#5742C1"/>
<path d="M76.7756 108.318H79.2871V110.828H76.7756V108.318Z" fill="#5742C1"/>
<path d="M76.7756 105.803H79.2871V108.317H76.7756V105.803Z" fill="#5742C1"/>
<path d="M76.7756 60.5879H79.2871V63.0973H76.7756V60.5879Z" fill="#531484"/>
<path d="M79.2873 125.904H81.7988V128.419H79.2873V125.904Z" fill="#5742C1"/>
<path d="M79.2873 123.391H81.7988V125.9H79.2873V123.391Z" fill="#5742C1"/>
<path d="M79.2873 65.6113H81.7988V68.1207H79.2873V65.6113Z" fill="#FFC0C0"/>
<path d="M81.8049 80.6836H84.3164V83.193H81.8049V80.6836Z" fill="#531484"/>
<path d="M81.8049 78.1719H84.3164V80.6813H81.8049V78.1719Z" fill="#531484"/>
<path d="M81.8049 75.6602H84.3164V78.1748H81.8049V75.6602Z" fill="#531484"/>
<path d="M81.8049 73.1445H84.3164V75.6539H81.8049V73.1445Z" fill="#531484"/>
<path d="M81.8049 70.6348H84.3164V73.1442H81.8049V70.6348Z" fill="#531484"/>
<path d="M81.8049 68.1211H84.3164V70.6357H81.8049V68.1211Z" fill="#531484"/>
<path d="M81.8049 65.6113H84.3164V68.1207H81.8049V65.6113Z" fill="#FFC0C0"/>
<path d="M81.8049 63.0957H84.3164V65.6051H81.8049V63.0957Z" fill="#FFC0C0"/>
<path d="M84.3104 83.1973H86.8271V85.7067H84.3104V83.1973Z" fill="#531484"/>
<path d="M84.3104 80.6836H86.8271V83.193H84.3104V80.6836Z" fill="#531484"/>
<path d="M84.3104 78.1719H86.8271V80.6813H84.3104V78.1719Z" fill="#531484"/>
<path d="M84.3104 75.6602H86.8271V78.1748H84.3104V75.6602Z" fill="#531484"/>
<path d="M86.8322 83.1973H89.3438V85.7067H86.8322V83.1973Z" fill="#531484"/>
<path d="M86.8322 80.6836H89.3438V83.193H86.8322V80.6836Z" fill="#531484"/>
<path d="M94.3671 85.707H96.8838V88.2217H94.3671V85.707Z" fill="#FFF8F0"/>
<path d="M94.3671 83.1973H96.8838V85.7067H94.3671V83.1973Z" fill="#EFE5DA"/>
<path d="M96.8889 95.7559H99.4004V98.2705H96.8889V95.7559Z" fill="#FFF8F0"/>
<path d="M96.8889 93.2461H99.4004V95.7555H96.8889V93.2461Z" fill="#FFF8F0"/>
<path d="M96.8889 90.7305H99.4004V93.2399H96.8889V90.7305Z" fill="#FFF8F0"/>
<path d="M96.8889 88.2227H99.4004V90.7321H96.8889V88.2227Z" fill="#FFF8F0"/>
<path d="M96.8889 85.707H99.4004V88.2217H96.8889V85.707Z" fill="#FFF8F0"/>
<path d="M96.8889 83.1973H99.4004V85.7067H96.8889V83.1973Z" fill="#FFF8F0"/>
<path d="M96.8889 80.6836H99.4004V83.193H96.8889V80.6836Z" fill="#FFF8F0"/>
<path d="M99.4006 85.707H101.912V88.2217H99.4006V85.707Z" fill="#FFF8F0"/>
<path d="M99.4006 83.1973H101.912V85.7067H99.4006V83.1973Z" fill="#EFE5DA"/>
<path d="M99.4006 80.6836H101.912V83.193H99.4006V80.6836Z" fill="#FFF8F0"/>
<path d="M101.917 93.2461H104.429V95.7555H101.917V93.2461Z" fill="#FFF8F0"/>
<path d="M101.917 90.7305H104.429V93.2399H101.917V90.7305Z" fill="#EFE5DA"/>
<path d="M101.917 88.2227H104.429V90.7321H101.917V88.2227Z" fill="#FFF8F0"/>
<path d="M101.917 85.707H104.429V88.2217H101.917V85.707Z" fill="#FFF8F0"/>
<path d="M101.917 83.1973H104.429V85.7067H101.917V83.1973Z" fill="#FFF8F0"/>
<path d="M101.917 80.6836H104.429V83.193H101.917V80.6836Z" fill="#FFF8F0"/>
<path d="M104.429 103.293H106.945V105.802H104.429V103.293Z" fill="#FFF8F0"/>
<path d="M104.429 88.2227H106.945V90.7321H104.429V88.2227Z" fill="#FFF8F0"/>
<path d="M104.429 85.707H106.945V88.2217H104.429V85.707Z" fill="#FFF8F0"/>
<path d="M104.429 83.1973H106.945V85.7067H104.429V83.1973Z" fill="#EFE5DA"/>
<path d="M104.429 80.6836H106.945V83.193H104.429V80.6836Z" fill="#FFF8F0"/>
<path d="M106.946 98.2695H109.457V100.779H106.946V98.2695Z" fill="#FFF8F0"/>
<path d="M106.946 95.7559H109.457V98.2705H106.946V95.7559Z" fill="#FFF8F0"/>
<path d="M106.946 93.2461H109.457V95.7555H106.946V93.2461Z" fill="#EFE5DA"/>
<path d="M106.946 90.7305H109.457V93.2399H106.946V90.7305Z" fill="#FFF8F0"/>
<path d="M106.946 88.2227H109.457V90.7321H106.946V88.2227Z" fill="#FFF8F0"/>
<path d="M106.946 85.707H109.457V88.2217H106.946V85.707Z" fill="#FFF8F0"/>
<path d="M106.946 83.1973H109.457V85.7067H106.946V83.1973Z" fill="#FFF8F0"/>
<path d="M66.715 45.5098H69.2266V48.0192H66.715V45.5098Z" fill="#C40F06"/>
<path d="M66.715 43H69.2266V45.5094H66.715V43Z" fill="#C40F06"/>
<path d="M66.715 48.0234H69.2266V50.5381H66.715V48.0234Z" fill="#C40F06"/>
<path d="M69.2316 50.5391H71.7432V53.0485H69.2316V50.5391Z" fill="#C40F06"/>
<path d="M66.715 50.5391H69.2266V53.0485H66.715V50.5391Z" fill="#E0C70E"/>
<path d="M69.2316 53.0469H71.7432V55.5563H69.2316V53.0469Z" fill="#E0C70E"/>
<path d="M66.715 53.0469H69.2266V55.5563H66.715V53.0469Z" fill="#3FAA00"/>
<path d="M69.2316 55.5625H71.7432V58.0719H69.2316V55.5625Z" fill="#3FAA00"/>
<path d="M66.715 55.5625H69.2266V58.0719H66.715V55.5625Z" fill="#00B6C4"/>
<path d="M66.715 60.5879H69.2266V63.0973H66.715V60.5879Z" fill="#0054CE"/>
<path d="M66.715 63.0977H69.2266V65.6071H66.715V63.0977Z" fill="#6400CE"/>
<path d="M69.2316 63.0977H71.7432V65.6071H69.2316V63.0977Z" fill="#6400CE"/>
<path d="M86.8332 80.6836H89.3447V83.193H86.8332V80.6836Z" fill="#8255B7"/>
<path d="M84.3114 75.6582H86.8281V78.1728H84.3114V75.6582Z" fill="#8255B7"/>
<path d="M84.3114 78.1738H86.8281V80.6832H84.3114V78.1738Z" fill="#8255B7"/>
<path d="M81.8049 70.6348H84.3164V73.1442H81.8049V70.6348Z" fill="#8255B7"/>
<path d="M81.8049 73.1426H84.3164V75.652H81.8049V73.1426Z" fill="#8255B7"/>
<path d="M81.8049 68.1211H84.3164V70.6357H81.8049V68.1211Z" fill="#8255B7"/>
<path d="M49.1184 80.6836H51.6299V83.193H49.1184V80.6836Z" fill="#8255B7"/>
<path d="M46.5965 83.1973H49.1133V85.7067H46.5965V83.1973Z" fill="#8255B7"/>
<path d="M51.6301 80.6836H54.1416V83.193H51.6301V80.6836Z" fill="#8255B7"/>
<path d="M51.6301 75.6582H54.1416V78.1728H51.6301V75.6582Z" fill="#8255B7"/>
<path d="M51.6301 73.1426H54.1416V75.652H51.6301V73.1426Z" fill="#8255B7"/>
<path d="M51.6301 78.1738H54.1416V80.6832H51.6301V78.1738Z" fill="#8255B7"/>
<path d="M54.1415 68.1211H56.6582V70.6357H54.1415V68.1211Z" fill="#8255B7"/>
<path d="M54.1415 70.6348H56.6582V73.1442H54.1415V70.6348Z" fill="#8255B7"/>
<path d="M61.6867 68.1211H64.1982V70.6357H61.6867V68.1211Z" fill="#8255B7"/>
<path d="M61.6867 60.5879H64.1982V63.0973H61.6867V60.5879Z" fill="#8255B7"/>
<path d="M64.1981 70.6348H66.7148V73.1442H64.1981V70.6348Z" fill="#8255B7"/>
<path d="M64.1981 65.6094H66.7148V68.1188H64.1981V65.6094Z" fill="#8255B7"/>
<path d="M66.715 68.1211H69.2266V70.6357H66.715V68.1211Z" fill="#8255B7"/>
<path d="M66.715 58.0723H69.2266V60.5869H66.715V58.0723Z" fill="#0054CE"/>
<path d="M69.2316 68.1211H71.7432V70.6357H69.2316V68.1211Z" fill="#8255B7"/>
<path d="M69.2316 65.6094H71.7432V68.1188H69.2316V65.6094Z" fill="#8255B7"/>
<path d="M69.2316 60.5879H71.7432V63.0973H69.2316V60.5879Z" fill="#0054CE"/>
<path d="M69.2316 58.0723H71.7432V60.5869H69.2316V58.0723Z" fill="#00B6C4"/>
<path d="M71.7434 65.6094H74.2549V68.1188H71.7434V65.6094Z" fill="#8255B7"/>
<path d="M74.2547 63.0977H76.7715V65.6071H74.2547V63.0977Z" fill="#8255B7"/>
<path d="M74.2547 60.5879H76.7715V63.0973H74.2547V60.5879Z" fill="#8255B7"/>
<path d="M74.2547 58.0723H76.7715V60.5869H74.2547V58.0723Z" fill="#612699"/>
<path d="M76.7766 60.5879H79.2881V63.0973H76.7766V60.5879Z" fill="#8255B7"/>
<path d="M56.6574 53.0488H59.1689V55.5582H56.6574V53.0488Z" fill="#FFBB69"/>
<path d="M56.6574 55.5645H59.1689V58.0738H56.6574V55.5645Z" fill="#FFBB69"/>
<path d="M56.6574 58.0723H59.1689V60.5869H56.6574V58.0723Z" fill="#FFBB69"/>
<path d="M59.1741 55.5645H61.6855V58.0738H59.1741V55.5645Z" fill="#5742C1"/>
<path d="M61.6857 55.5645H64.1973V58.0738H61.6857V55.5645Z" fill="#5742C1"/>
<path d="M64.1981 55.5645H66.7148V58.0738H64.1981V55.5645Z" fill="#5742C1"/>
<path d="M71.7424 55.5645H74.2539V58.0738H71.7424V55.5645Z" fill="#5742C1"/>
<path d="M74.2538 55.5645H76.7705V58.0738H74.2538V55.5645Z" fill="#5742C1"/>
<path d="M76.7756 55.5645H79.2871V58.0738H76.7756V55.5645Z" fill="#5742C1"/>
<path d="M79.2873 58.0723H81.7988V60.5869H79.2873V58.0723Z" fill="#5742C1"/>
<path d="M59.1741 60.5879H61.6855V63.0973H59.1741V60.5879Z" fill="#FFBB69"/>
<path d="M59.1741 58.0723H61.6855V60.5869H59.1741V58.0723Z" fill="#FFBB69"/>
<path d="M61.6857 60.5879H64.1973V63.0973H61.6857V60.5879Z" fill="#5742C1"/>
<path d="M61.6857 63.0957H64.1973V65.6051H61.6857V63.0957Z" fill="#5742C1"/>
<path d="M61.6857 58.0723H64.1973V60.5869H61.6857V58.0723Z" fill="#5742C1"/>
<path d="M61.6857 65.6113H64.1973V68.1207H61.6857V65.6113Z" fill="#5742C1"/>
<path d="M66.7141 65.6113H69.2256V68.1207H66.7141V65.6113Z" fill="#5742C1"/>
<path d="M64.1981 65.6113H66.7148V68.1207H64.1981V65.6113Z" fill="#5742C1"/>
<path d="M64.1981 63.0957H66.7148V65.6051H64.1981V63.0957Z" fill="#5742C1"/>
<path d="M64.1981 60.5879H66.7148V63.0973H64.1981V60.5879Z" fill="#5742C1"/>
<path d="M64.1981 58.0723H66.7148V60.5869H64.1981V58.0723Z" fill="#5742C1"/>
<path d="M69.2307 65.6113H71.7422V68.1207H69.2307V65.6113Z" fill="#5742C1"/>
<path d="M71.7424 65.6113H74.2539V68.1207H71.7424V65.6113Z" fill="#5742C1"/>
<path d="M74.2538 63.0957H76.7705V65.6051H74.2538V63.0957Z" fill="#5742C1"/>
<path d="M71.7424 63.0957H74.2539V65.6051H71.7424V63.0957Z" fill="#5742C1"/>
<path d="M71.7424 58.0723H74.2539V60.5869H71.7424V58.0723Z" fill="#5742C1"/>
<path d="M71.7424 60.5879H74.2539V63.0973H71.7424V60.5879Z" fill="#5742C1"/>
<path d="M74.2538 58.0723H76.7705V60.5869H74.2538V58.0723Z" fill="#5742C1"/>
<path d="M74.2538 60.5879H76.7705V63.0973H74.2538V60.5879Z" fill="#5742C1"/>
<path d="M76.7756 58.0723H79.2871V60.5869H76.7756V58.0723Z" fill="#5742C1"/>
<path d="M76.7756 60.5879H79.2871V63.0973H76.7756V60.5879Z" fill="#5742C1"/>
<path d="M46.5946 100.779H49.1113V103.289H46.5946V100.779Z" fill="#F7F2F2"/>
<path d="M49.1174 105.803H51.6289V108.317H49.1174V105.803Z" fill="#F7F2F2"/>
<path d="M49.1174 103.291H51.6289V105.8H49.1174V103.291Z" fill="#F7F2F2"/>
<path d="M51.6281 105.803H54.1396V108.317H51.6281V105.803Z" fill="#F7F2F2"/>
<path d="M51.6281 95.7539H54.1396V98.2686H51.6281V95.7539Z" fill="#EAE4E4"/>
<path d="M51.6281 93.2441H54.1396V95.7535H51.6281V93.2441Z" fill="#EAE4E4"/>
<path d="M51.6281 90.7285H54.1396V93.2379H51.6281V90.7285Z" fill="#EAE4E4"/>
<path d="M51.6281 88.2207H54.1396V90.7301H51.6281V88.2207Z" fill="#EAE4E4"/>
<path d="M51.6281 85.7051H54.1396V88.2197H51.6281V85.7051Z" fill="#EAE4E4"/>
<path d="M54.1395 105.803H56.6562V108.317H54.1395V105.803Z" fill="#F7F2F2"/>
<path d="M54.1395 98.2695H56.6562V100.779H54.1395V98.2695Z" fill="#EAE4E4"/>
<path d="M56.6565 143.484H59.168V145.999H56.6565V143.484Z" fill="#A379E0"/>
<path d="M56.6565 140.977H59.168V143.486H56.6565V140.977Z" fill="#A379E0"/>
<path d="M56.6565 125.902H59.168V128.417H56.6565V125.902Z" fill="#4738B2"/>
<path d="M56.6565 105.803H59.168V108.317H56.6565V105.803Z" fill="#F7F2F2"/>
<path d="M56.6565 100.779H59.168V103.289H56.6565V100.779Z" fill="#EAE4E4"/>
<path d="M56.6565 80.6816H59.168V83.191H56.6565V80.6816Z" fill="#FFC0C0"/>
<path d="M59.1731 140.977H61.6846V143.486H59.1731V140.977Z" fill="#A379E0"/>
<path d="M59.1731 133.438H61.6846V135.947H59.1731V133.438Z" fill="#4738B2"/>
<path d="M59.1731 130.928H61.6846V133.437H59.1731V130.928Z" fill="#4738B2"/>
<path d="M59.1731 128.412H61.6846V130.922H59.1731V128.412Z" fill="#4738B2"/>
<path d="M59.1731 105.803H61.6846V108.317H59.1731V105.803Z" fill="#4738B2"/>
<path d="M59.1731 100.779H61.6846V103.289H59.1731V100.779Z" fill="#EAE4E4"/>
<path d="M59.1731 80.6816H61.6846V83.191H59.1731V80.6816Z" fill="#FFC0C0"/>
<path d="M61.6848 133.438H64.1963V135.947H61.6848V133.438Z" fill="#4738B2"/>
<path d="M61.6848 105.803H64.1963V108.317H61.6848V105.803Z" fill="#4738B2"/>
<path d="M61.6848 100.779H64.1963V103.289H61.6848V100.779Z" fill="#EAE4E4"/>
<path d="M64.1961 130.928H66.7129V133.437H64.1961V130.928Z" fill="#4738B2"/>
<path d="M64.1961 120.879H66.7129V123.388H64.1961V120.879Z" fill="#EFDFDF"/>
<path d="M64.1961 115.85H66.7129V118.364H64.1961V115.85Z" fill="#4738B2"/>
<path d="M64.1961 100.779H66.7129V103.289H64.1961V100.779Z" fill="#EAE4E4"/>
<path d="M66.7131 130.928H69.2246V133.437H66.7131V130.928Z" fill="#4738B2"/>
<path d="M66.7131 120.879H69.2246V123.388H66.7131V120.879Z" fill="#EFDFDF"/>
<path d="M66.7131 115.85H69.2246V118.364H66.7131V115.85Z" fill="#4738B2"/>
<path d="M66.7131 100.779H69.2246V103.289H66.7131V100.779Z" fill="#EAE4E4"/>
<path d="M69.2297 130.928H71.7412V133.437H69.2297V130.928Z" fill="#4738B2"/>
<path d="M69.2297 120.879H71.7412V123.388H69.2297V120.879Z" fill="#EFDFDF"/>
<path d="M69.2297 115.85H71.7412V118.364H69.2297V115.85Z" fill="#4738B2"/>
<path d="M69.2297 100.779H71.7412V103.289H69.2297V100.779Z" fill="#EAE4E4"/>
<path d="M71.7414 130.928H74.2529V133.437H71.7414V130.928Z" fill="#4738B2"/>
<path d="M71.7414 120.879H74.2529V123.388H71.7414V120.879Z" fill="#EFDFDF"/>
<path d="M71.7414 115.85H74.2529V118.364H71.7414V115.85Z" fill="#4738B2"/>
<path d="M71.7414 100.779H74.2529V103.289H71.7414V100.779Z" fill="#EAE4E4"/>
<path d="M74.2538 133.438H76.7705V135.947H74.2538V133.438Z" fill="#4738B2"/>
<path d="M74.2538 105.803H76.7705V108.317H74.2538V105.803Z" fill="#4738B2"/>
<path d="M74.2538 100.779H76.7705V103.289H74.2538V100.779Z" fill="#EAE4E4"/>
<path d="M76.7756 140.977H79.2871V143.486H76.7756V140.977Z" fill="#A379E0"/>
<path d="M76.7756 138.459H79.2871V140.968H76.7756V138.459Z" fill="#A379E0"/>
<path d="M76.7756 105.803H79.2871V108.317H76.7756V105.803Z" fill="#4738B2"/>
<path d="M76.7756 100.779H79.2871V103.289H76.7756V100.779Z" fill="#EAE4E4"/>
<path d="M76.7756 80.6816H79.2871V83.191H76.7756V80.6816Z" fill="#FFC0C0"/>
<path d="M79.2863 140.977H81.7979V143.486H79.2863V140.977Z" fill="#A379E0"/>
<path d="M79.2863 125.902H81.7979V128.417H79.2863V125.902Z" fill="#4738B2"/>
<path d="M79.2863 105.803H81.7979V108.317H79.2863V105.803Z" fill="#F7F2F2"/>
<path d="M79.2863 100.779H81.7979V103.289H79.2863V100.779Z" fill="#EAE4E4"/>
<path d="M79.2863 80.6816H81.7979V83.191H79.2863V80.6816Z" fill="#FFC0C0"/>
<path d="M81.8029 143.484H84.3145V145.999H81.8029V143.484Z" fill="#A379E0"/>
<path d="M81.8029 140.977H84.3145V143.486H81.8029V140.977Z" fill="#A379E0"/>
<path d="M81.8029 105.803H84.3145V108.317H81.8029V105.803Z" fill="#F7F2F2"/>
<path d="M81.8029 98.2695H84.3145V100.779H81.8029V98.2695Z" fill="#EAE4E4"/>
<path d="M84.3094 105.803H86.8262V108.317H84.3094V105.803Z" fill="#F7F2F2"/>
<path d="M84.3094 95.7539H86.8262V98.2686H84.3094V95.7539Z" fill="#EAE4E4"/>
<path d="M84.3094 93.2441H86.8262V95.7535H84.3094V93.2441Z" fill="#EAE4E4"/>
<path d="M84.3094 90.7285H86.8262V93.2379H84.3094V90.7285Z" fill="#EAE4E4"/>
<path d="M84.3094 88.2207H86.8262V90.7301H84.3094V88.2207Z" fill="#EAE4E4"/>
<path d="M84.3094 85.7051H86.8262V88.2197H84.3094V85.7051Z" fill="#EAE4E4"/>
<path d="M86.8313 105.803H89.3428V108.317H86.8313V105.803Z" fill="#F7F2F2"/>
<path d="M86.8313 103.291H89.3428V105.8H86.8313V103.291Z" fill="#F7F2F2"/>
<path d="M89.343 100.779H91.8545V103.289H89.343V100.779Z" fill="#F7F2F2"/>
<path fill-rule="evenodd" clip-rule="evenodd" d="M31.7228 80.6827V83.1973H29.2256V110.827H44.2246V108.317H49.2243V110.827H56.7212V128.413H59.2236V140.976H56.7212V146H64.2233V133.437H74.2227V146H84.222V140.976H79.2223V128.413H81.7248V110.827H89.2217V108.317H94.2214V110.827H109.226V83.1973H106.723V80.6827H96.7238V83.1973H94.2214V93.2453H89.2217V103.293H86.7244V105.803H76.7251V103.293H81.7248V100.779H84.222V98.2693H86.7244V85.7067H89.2217V80.6827H86.7244V75.6587H84.222V58.072H79.2223V55.5626H71.7254V50.5386H69.223V43H66.7257V55.5626H59.2236V53.048H56.7212V58.072H54.224V73.1441H51.7215V80.6827H49.2243V83.1973H46.7219V85.7067H51.7215V98.2693H54.224V100.779H56.7212V103.293H61.7209V105.803H51.7215V103.293H49.2243V98.2693H46.7219V93.2453H44.2246V83.1973H41.7222V80.6827H31.7228ZM44.7222 80.1973V77.6827H28.7228V80.1973H26.2256V113.827H53.7212V131.413H56.2236V137.976H53.7212V149H67.2233V136.437H71.2227V149H87.222V137.976H82.2223V131.413H84.7248V113.827H112.226V80.1973H109.723V77.6827H93.7238V80.1973H92.2217V77.6827H89.7244V72.6587H87.222V55.072H82.2223V52.5626H74.7254V47.5386H72.223V40H63.7257V52.5626H62.2236V50.048H53.7212V55.072H51.224V70.1441H48.7215V77.6827H46.2243V80.1973H44.7222ZM91.2214 88.7067V90.2453H89.7244V88.7067H91.2214ZM47.2246 88.7067V90.2453H48.7215V88.7067H47.2246Z" fill="black"/>
</svg>
