<svg width="160" height="162" viewBox="0 0 160 162" fill="none" xmlns="http://www.w3.org/2000/svg">
<rect x="23" width="137" height="137" fill="#FAFAFA"/>
<rect y="25" width="137" height="137" fill="#F5F5F5"/>
<path d="M89.8753 123.627H46.125V128.002H89.8753V123.627Z" fill="#F7FEFF"/>
<path d="M89.8753 106.125H85.5003V119.25H50.5V106.125H46.125V123.625H89.8753V106.125Z" fill="#231E2B"/>
<path d="M68 114.875H63.625V119.25H68V114.875Z" fill="#47414D"/>
<path d="M46.1241 106.125H41.749V123.625H46.1241V106.125Z" fill="#F7FEFF"/>
<path d="M81.1252 114.877H76.7502V110.502H59.2501V114.877H54.875V110.502H50.5V119.252H63.6251V114.877H68.0001V119.252H85.5002V110.502H81.1252V114.877Z" fill="#F7FEFF"/>
<path d="M81.126 110.502H76.751V114.877H81.126V110.502Z" fill="#47414D"/>
<path d="M59.251 110.502H54.876V114.877H59.251V110.502Z" fill="#47414D"/>
<path d="M94.251 106.125H89.876V123.625H94.251V106.125Z" fill="#F7FEFF"/>
<path d="M85.5011 106.125H72.376V110.5H85.5011V106.125Z" fill="#CF8934"/>
<path d="M63.6251 106.125H50.5V110.5H63.6251V106.125Z" fill="#CF8934"/>
<path d="M59.2501 106.125V101.75H54.8751V93H50.5V97.375H46.125V106.125H59.2501Z" fill="#892727"/>
<path d="M46.1241 97.375H41.749V106.125H46.1241V97.375Z" fill="#231E2B"/>
<path d="M98.626 97.375H94.251V106.125H98.626V97.375Z" fill="#F7FEFF"/>
<path d="M94.251 97.375H89.876V106.125H94.251V97.375Z" fill="#231E2B"/>
<path d="M41.75 97.375H37.375V106.125H41.75V97.375Z" fill="#F7FEFF"/>
<path d="M94.251 93H89.876V97.375H94.251V93Z" fill="#892727"/>
<path d="M85.501 93H81.126V101.75H76.751V106.125H89.8761V97.375H85.501V93Z" fill="#892727"/>
<path d="M81.126 93H76.751V97.375H81.126V93Z" fill="#F5F38E"/>
<path d="M76.7511 93.002H68.0011V88.627H59.251V93.002H54.876V101.752H59.251V106.127H63.626V110.502H72.3761V106.127H76.7511V101.752H81.1262V97.377H76.7511V93.002Z" fill="#E2B436"/>
<path d="M50.4991 93.0021H54.8741V88.627H59.2491V84.252H63.6242V79.877H59.2491V75.502H54.8741V79.877H46.1241V84.252H41.749V93.0021H46.1241V97.3771H50.4991V93.0021Z" fill="#B0392E"/>
<path d="M46.1241 93H41.749V97.375H46.1241V93Z" fill="#892727"/>
<path d="M41.75 79.875H37.375V97.3751H41.75V79.875Z" fill="#231E2B"/>
<path d="M98.626 79.875H94.251V97.3751H98.626V79.875Z" fill="#231E2B"/>
<path d="M81.126 88.627H76.751V93.002H81.126V88.627Z" fill="#892727"/>
<path d="M76.75 88.627H68V93.002H76.75V88.627Z" fill="#F5F38E"/>
<path d="M59.251 88.627H54.876V93.002H59.251V88.627Z" fill="#892727"/>
<path d="M37.375 79.875H33V97.3751H37.375V79.875Z" fill="#F7FEFF"/>
<path d="M76.751 84.25H72.376V88.625H76.751V84.25Z" fill="#892727"/>
<path d="M63.626 84.25H59.251V88.625H63.626V84.25Z" fill="#892727"/>
<path d="M103 79.875H98.625V97.3751H103V79.875Z" fill="#F7FEFF"/>
<path d="M94.251 79.875H89.876V84.25H94.251V79.875Z" fill="#CF6B55"/>
<path d="M89.8761 79.877H81.126V75.502H76.751V79.877H72.376V84.252H76.751V88.627H81.126V93.0021H85.5011V97.3771H89.8761V93.0021H94.2511V84.252H89.8761V79.877Z" fill="#B0392E"/>
<path d="M46.1241 79.875H41.749V84.25H46.1241V79.875Z" fill="#CF6B55"/>
<path d="M98.626 75.502H94.251V79.877H98.626V75.502Z" fill="#F7FEFF"/>
<path d="M94.251 75.502H89.876V79.877H94.251V75.502Z" fill="#231E2B"/>
<path d="M89.875 75.502H81.125V79.877H89.875V75.502Z" fill="#CF6B55"/>
<path d="M76.751 75.502H72.376V79.877H76.751V75.502Z" fill="#892727"/>
<path d="M72.3751 75.502H63.625V88.627H72.3751V75.502Z" fill="#CF8934"/>
<path d="M63.626 75.502H59.251V79.877H63.626V75.502Z" fill="#892727"/>
<path d="M54.8751 75.502H46.125V79.877H54.8751V75.502Z" fill="#CF6B55"/>
<path d="M46.1241 75.502H41.749V79.877H46.1241V75.502Z" fill="#231E2B"/>
<path d="M41.75 75.502H37.375V79.877H41.75V75.502Z" fill="#F7FEFF"/>
<path d="M94.251 71.125H89.876V75.5H94.251V71.125Z" fill="#F7FEFF"/>
<path d="M89.8761 71.125H76.751V75.5H89.8761V71.125Z" fill="#231E2B"/>
<path d="M76.751 71.125H72.376V75.5H76.751V71.125Z" fill="#F5F38E"/>
<path d="M72.3761 75.5001V71.125H68.001V66.75H63.626V71.125H59.251V75.5001H72.3761Z" fill="#E2B436"/>
<path d="M59.2501 71.125H46.125V75.5H59.2501V71.125Z" fill="#231E2B"/>
<path d="M46.1241 71.125H41.749V75.5H46.1241V71.125Z" fill="#F7FEFF"/>
<path d="M89.8761 66.75H76.751V71.125H89.8761V66.75Z" fill="#F7FEFF"/>
<path d="M76.751 66.75H72.376V71.125H76.751V66.75Z" fill="#231E2B"/>
<path d="M72.375 66.75H68V71.125H72.375V66.75Z" fill="#F5F38E"/>
<path d="M63.626 66.75H59.251V71.125H63.626V66.75Z" fill="#231E2B"/>
<path d="M59.2501 66.75H46.125V71.125H59.2501V66.75Z" fill="#F7FEFF"/>
<path d="M76.751 62.375H72.376V66.75H76.751V62.375Z" fill="#F7FEFF"/>
<path d="M72.3751 62.375H63.625V66.75H72.3751V62.375Z" fill="#231E2B"/>
<path d="M63.626 62.375H59.251V66.75H63.626V62.375Z" fill="#F7FEFF"/>
<path d="M72.3751 58H63.625V62.375H72.3751V58Z" fill="#F7FEFF"/>
</svg>
