<svg width="160" height="162" viewBox="0 0 160 162" fill="none" xmlns="http://www.w3.org/2000/svg">
<rect x="23" width="137" height="137" fill="#FAFAFA"/>
<rect y="25" width="137" height="137" fill="#F5F5F5"/>
<path d="M81.9997 123.998H73.333V128.331H81.9997V123.998Z" fill="#F7FEFF"/>
<path d="M64.6667 123.998H56V128.331H64.6667V123.998Z" fill="#F7FEFF"/>
<path d="M73.3336 119.666H64.667V123.999H73.3336V119.666Z" fill="#F7FEFF"/>
<path d="M60.3333 119.667V102.334H56V124.001H64.6667V119.667H60.3333Z" fill="#231E2B"/>
<path d="M81.9997 102.334H77.6663V119.667H73.333V124.001H81.9997V102.334Z" fill="#231E2B"/>
<path d="M77.6663 115.332H73.333V119.665H77.6663V115.332Z" fill="#CF6B55"/>
<path d="M73.3336 115.332H64.667V119.665H73.3336V115.332Z" fill="#231E2B"/>
<path d="M64.6673 115.332H60.334V119.665H64.6673V115.332Z" fill="#CF6B55"/>
<path d="M56.0003 102.334H51.667V124.001H56.0003V102.334Z" fill="#F7FEFF"/>
<path d="M73.3336 111H64.667V115.333H73.3336V111Z" fill="#CF6B55"/>
<path d="M60.334 106.668V115.335H64.6673V111.001H73.334V115.335H77.6673V106.668H60.334Z" fill="#B0392E"/>
<path d="M86.3333 102.334H82V124.001H86.3333V102.334Z" fill="#F7FEFF"/>
<path d="M77.6673 102.334H60.334V106.667H77.6673V102.334Z" fill="#892727"/>
<path d="M90.6663 97.998H86.333V102.331H90.6663V97.998Z" fill="#F7FEFF"/>
<path d="M86.3333 97.998H82V102.331H86.3333V97.998Z" fill="#231E2B"/>
<path d="M82 97.998H56V102.331H82V97.998Z" fill="#CF8934"/>
<path d="M56.0003 97.998H51.667V102.331H56.0003V97.998Z" fill="#231E2B"/>
<path d="M51.6663 97.998H47.333V102.331H51.6663V97.998Z" fill="#F7FEFF"/>
<path d="M86.3333 93.666H82V97.9993H86.3333V93.666Z" fill="#CF8934"/>
<path d="M56.0003 93.666H51.667V97.9993H56.0003V93.666Z" fill="#CF8934"/>
<path d="M51.6663 72.002H47.333V98.0019H51.6663V72.002Z" fill="#231E2B"/>
<path d="M73.334 89.334V76.334H64.6673V80.6673H60.334V85.0006H64.6673V89.334H60.334V93.6673H77.6673V89.334H73.334Z" fill="#C2751D"/>
<path d="M47.3333 72.002H43V98.0019H47.3333V72.002Z" fill="#F7FEFF"/>
<path d="M94.9993 72.002H90.666V98.0019H94.9993V72.002Z" fill="#F7FEFF"/>
<path d="M90.6663 72.002H86.333V98.0019H90.6663V72.002Z" fill="#231E2B"/>
<path d="M86.3333 72.002H82V76.3353H86.3333V72.002Z" fill="#F5F38E"/>
<path d="M56.0003 72.002V76.3353H51.667V93.6686H56.0003V98.0019H82.0003V93.6686H86.3336V76.3353H82.0003V72.002H56.0003ZM60.3337 93.6686V89.3353H64.667V85.0019H60.3337V80.6686H64.667V76.3353H73.3336V89.3353H77.667V93.6686H60.3337Z" fill="#E2B436"/>
<path d="M56.0003 72.002H51.667V76.3353H56.0003V72.002Z" fill="#F5F38E"/>
<path d="M90.6663 67.666H86.333V71.9993H90.6663V67.666Z" fill="#F7FEFF"/>
<path d="M86.3333 67.666H82V71.9993H86.3333V67.666Z" fill="#231E2B"/>
<path d="M82 67.666H56V71.9993H82V67.666Z" fill="#F5F38E"/>
<path d="M56.0003 67.666H51.667V71.9993H56.0003V67.666Z" fill="#231E2B"/>
<path d="M51.6663 67.666H47.333V71.9993H51.6663V67.666Z" fill="#F7FEFF"/>
<path d="M86.3333 63.332H82V67.6654H86.3333V63.332Z" fill="#F7FEFF"/>
<path d="M82 63.332H56V67.6654H82V63.332Z" fill="#231E2B"/>
<path d="M56.0003 63.332H51.667V67.6654H56.0003V63.332Z" fill="#F7FEFF"/>
<path d="M82 59H56V63.3333H82V59Z" fill="#F7FEFF"/>
</svg>
